<svg xmlns="http://www.w3.org/2000/svg" width="400" height="400" viewBox="0 0 400 400">
  <g fill-rule="evenodd">
    <path fill="#ebbcaa" d="M186.4 111.574c-.77.149-2.226.756-3.235 1.348-1.009.593-2.145 1.078-2.524 1.078-.378 0-.593.154-.477.342.117.188-.231.258-.773.154-1.293-.247-4.662.266-4.411.672.108.174-.249.231-.792.128-.543-.104-.988-.024-.988.177 0 .202-.655.29-1.455.197-.8-.094-1.358-.013-1.24.18.117.192-.601.398-1.596.457-.995.06-2.012.233-2.259.386-.247.153-.931.227-1.519.165-.589-.061-2.533.35-4.321.915-2.307.729-4.146 1.028-6.331 1.032-1.693.002-4.069.291-5.279.641-1.21.35-3.215.608-4.455.573-1.241-.035-3.401.238-4.8.606-2.076.547-3.689.629-8.745.445-3.41-.124-7.46-.055-9 .153-1.54.209-4.567.548-6.727.754-4.209.401-18.916 4.906-18.455 5.653.123.198-.011.274-.297.169-.709-.262-8.82 3.961-8.431 4.388.171.188.09.215-.179.061-.63-.363-2.586.907-2.246 1.458.149.24.066.299-.193.138-.249-.153-1.399.359-2.557 1.139-1.687 1.136-2.487 1.417-4.033 1.417-1.061 0-1.846.135-1.744.3.102.165-.562.326-1.476.358-.914.032-3.192.246-5.062.475-1.87.229-3.636.428-3.924.442-.291.014-.397.23-.238.487.172.277.11.353-.153.191-.863-.534-10.241 2.371-9.826 3.043.158.256.075.311-.207.136-.488-.301-5.416 2.72-6.43 3.942-.831 1-2.336 1.676-4.922 2.209-1.265.26-2.3.616-2.3.79 0 .174-.471.226-1.047.116-1.305-.25-7.011 1.493-6.675 2.038.136.219.044.272-.205.118-1.799-1.112-15.418 8.958-14.688 10.86.113.295.03.428-.184.295-.487-.301-3.305 5.62-3.36 7.061-.023.583-.156.99-.296.904-.474-.291-.734 1.622-.74 5.446-.003 2.531-.186 4.076-.544 4.6-.297.434-.861 1.689-1.255 2.789-.394 1.1-1.331 3.281-2.083 4.847-.751 1.567-1.416 3.311-1.476 3.877-.06.566-.366 1.337-.678 1.713-1.056 1.272-.797 13.883.334 16.265 1.177 2.48 3.347 4.849 5.984 6.536 3.279 2.098 6.582 8.163 7.512 13.795.16.972.423 1.947.584 2.167.161.22.53 1.277.821 2.35.29 1.072 1.269 3.052 2.174 4.4.906 1.347 2.142 3.485 2.747 4.75.605 1.265 1.605 2.885 2.221 3.6.617.715 1.573 1.974 2.123 2.798.551.824 1.121 1.409 1.266 1.3.146-.109.189-.092.096.038-.282.392.802 3.083 1.882 4.673.557.821 2.935 5.363 5.284 10.094 2.605 5.247 4.438 8.499 4.699 8.338.257-.159.31-.075.135.209-.164.266.293 1.392 1.04 2.562.734 1.148 1.684 2.778 2.112 3.621.428.843 2.264 2.939 4.079 4.657 1.816 1.719 3.417 3.587 3.559 4.152.475 1.893 1.846 2.924 4.295 3.23 1.674.209 2.852.688 4.57 1.856 1.273.866 2.548 1.486 2.835 1.378.318-.12.409-.017.234.267-.193.312-.062.377.4.2.463-.178.593-.113.4.2-.193.312-.062.377.4.2.378-.145.588-.104.467.091-.556.9 8.41 5.235 9.471 4.579.237-.147.316-.082.177.144-.716 1.159 15.679 6.32 22.53 7.093 3.35.378 7.167 1.053 9.514 1.683 1.162.312 2.332.442 2.6.288.267-.154.352-.131.188.05-.325.358.963.987 7.036 3.435 2.188.883 4.232 1.508 4.541 1.389.31-.119.464-.057.344.137-.318.515 2.533 1.552 5.627 2.046 1.477.236 2.816.509 2.974.607.697.43 29.415.281 30.502-.159.634-.257 3.309-.456 6.123-.456 4.593 0 8.552-.531 8.55-1.147 0-.139 2.985-.199 6.633-.134 6.782.122 12-.634 10.553-1.528-.332-.206-.77-.17-1.081.088-.402.335-.465.284-.27-.222.164-.427.044-.657-.342-.657-.812 0-1.718-1.169-1.572-2.028.181-1.07-1.046-1.259-6.136-.946-4.651.287-6.11.769-3.752 1.24 1.245.249 1.202.287-1.424 1.231-2.867 1.032-5.408.544-5.408-1.038 0-.448-.66-.525-3.315-.385-3.447.181-4.785.57-3.88 1.129.915.565-2.292 3.079-3.391 2.658-.358-.138-.471.073-.357.669l.166.87-.39-.876c-.214-.481-.804-1.111-1.311-1.4-.507-.288-.922-.794-.922-1.124 0-.651-3.509-1.06-5.279-.616-1.353.34-1.122 1.016.347 1.016 1.237 0 1.219.024-.7.998-1.082.549-2.268.999-2.635 1-.366.001-.741.227-.832.502-.118.354-1.606.539-5.086.635-5.188.142-7.793-.124-7.403-.755.13-.209-.153-.38-.627-.38s-1.342-.342-1.928-.76c-.587-.418-1.515-.843-2.062-.945-.649-.121-.403-.205.705-.241.935-.029 1.7-.213 1.7-.407 0-.82-3.93-1.157-4.685-.402-.491.491-1.455.106-1.115-.445.292-.473-.322-.802-3.8-2.038-1.65-.586-4.71-1.877-6.8-2.868-4.301-2.04-7.973-3.199-9.598-3.029-.606.064-1.375-.111-1.71-.388-.837-.696-4.692-1.133-4.692-.533 0 .251-.495.443-1.1.428-.961-.025-.999-.069-.3-.351 1.164-.471-.175-.97-5.4-2.014-6.485-1.295-8.779-2.288-27.898-12.072-12.869-6.586-13.975-7.782-14.543-15.735-.173-2.42-.438-6.02-.589-8-.206-2.702-.103-4.461.412-7.054 1.13-5.693.512-6.519-3.397-4.538-3.328 1.686-4.271 1.084-5.969-3.808-1.14-3.286-2.085-4.926-5.395-9.361-3.328-4.458-4.844-8.846-6.009-17.395-.341-2.502-2.658-7.283-4.254-8.777-.747-.7-2.444-2.145-3.772-3.212-1.715-1.379-2.806-2.681-3.77-4.498-3.189-6.01-5.16-6.698-3.754-1.311.891 3.411.099 4.314-2.115 2.41-1.062-.914-1.95-6.656-1.028-6.656.157 0 .337-1.755.4-3.9.145-4.99.701-6.627 4.117-12.13 3.276-5.276 3.325-5.757.595-5.804-3.361-.059-4.051-1.776-2.79-6.94 3.191-13.06 12.224-19.668 28.433-20.802 6.687-.467 7.708-.937 7.72-3.55.012-2.537 3.225-4.386 9.846-5.663 6.8-1.313 6.992-1.243 7.218 2.632.274 4.689.302 4.677 7.526-3.143 2.997-3.245 5.579-5.9 5.737-5.9.158 0 .749-.428 1.312-.951.564-.522 1.417-1.075 1.896-1.227.911-.289 1.223-1.422.391-1.422-.358 0-.365-.115-.026-.454.339-.339.621-.288 1.113.203.786.787 1.393.516 1.393-.622 0-.685.101-.741.595-.331.609.505 5.405-.578 5.405-1.221 0-.15.74-.391 1.644-.536 1.383-.221 1.611-.387 1.437-1.051-.113-.433-.043-.788.156-.788.2 0 .363.2.363.443 0 .284.395.344 1.099.168 1.414-.355 1.512-.475.948-1.155-.367-.441-.325-.617.194-.816.387-.149.853.009 1.126.382.687.94 2.748.371 2.418-.668-.248-.783.381-1.056.815-.354.273.442 2.178.537 3.167.157.85-.326.806-.957-.067-.958-.511-.001-.324-.322.697-1.194 1.645-1.407 3.468-2.147 3.833-1.556.136.22.725.591 1.309.823.604.241.846.503.561.609-3.052 1.133 5.971 1.843 13.468 1.059 3.042-.318 2.461-.905-.968-.98l-2.4-.052 3.318-.518c1.826-.285 3.563-.612 3.861-.727.299-.114.655-.096.792.042.137.137.646.309 1.13.383.484.074 1.028.399 1.209.723.227.405 1.003.589 2.484.589 1.184 0 3.421.266 4.969.592 3.301.695 4.35.549 8.637-1.2 3.357-1.369 8.724-2.995 9.876-2.993.872.001 1.371-.799.742-1.188-.352-.218-.303-.37.181-.555 1.088-.418 2.101-.293 2.323.286.16.415.919.497 3.23.348 2.28-.146 3.359-.034 4.395.458 1.953.927 3.071.813 4.662-.472 3.814-3.082 7.717-4.476 12.532-4.476 3.029 0 3.387-.08 3.575-.8.245-.937 1.595-1.043 3.044-.239.917.507.926.551.2.96-.595.336-.655.535-.277.917.38.384.609.384 1.072-.001.478-.397.667-.342 1.004.287.558 1.041 1.912 1.348 2.658.602.797-.797 1.78-.401 1.515.611-.241.924 1.365 1.676 1.862.872.199-.322.363-.217.504.323.41 1.567 2.486 2.217 4.557 1.426 1.407-.537 1.762-.852 1.611-1.427-.115-.438.116-.953.568-1.27.419-.293.627-.68.463-.861-.163-.181-.076-.201.195-.046.27.156.855.088 1.3-.15.545-.291.808-.297.808-.018 0 .228.371.414.824.414.453 0 .731.149.618.331-.486.788 2.894 1.716 5.269 1.447 2.232-.252 2.41-.205 3.706.979 1.003.916 1.18 1.243.672 1.243-.995 0-.847.664.211.948 1.401.375 3.1.294 3.1-.148 0-.22.396-.4.88-.4.684 0 .773.107.4.48-.693.693-.596.996.405 1.258.574.15 1.124-.026 1.568-.503.635-.681.837-.693 2.816-.159 1.172.316 2.511.626 2.976.688 1.349.182 2.755 1.379 2.755 2.346 0 .617.245.896.8.909.44.011 1.313.358 1.939.772.922.608 1.284.662 1.895.281 1.018-.636 1.166-.6 1.166.285 0 .748.73 1.243 1.833 1.243.312 0 .567-.253.567-.563 0-.389.277-.486.9-.316.732.201.769.274.2.392-1.093.227-.846 1.287.3 1.287.622 0 1-.227 1-.6 0-.757.434-.761 1.424-.013.733.555.735.588.043.6-.405.007-.66.237-.569.513.223.678 1.938.888 2.312.284.165-.268.52-.351.788-.185.382.236.381.367-.007.606-.601.372-.165 1.195.633 1.195.52 0 .752-.483.624-1.299-.089-.566 3.14.012 4.745.849.884.46 1.607.743 1.607.628 0-.115.394.158.875.606.482.449 1.022.838 1.2.866.179.028.46.074.625.103 1.879.333 4.112 2.114 3.125 2.493-.822.315-.794.804.064 1.133.412.158.867.022 1.131-.338.272-.373.776-.515 1.319-.373.824.216.835.263.171.748-.834.61-.693.822.791 1.195.704.176 1.099.116 1.099-.168 0-.243.253-.443.563-.443.359 0 .489.28.36.774-.165.63.066.825 1.241 1.046.795.149 1.543.43 1.664.625.365.592 1.772.397 1.772-.245s.414-.69 2-.231l1 .29-.9.297c-1.051.348-1.164.857-.267 1.201 1.038.399 1.367.283 1.367-.48 0-1.13 4.435-.642 5.83.642.423.39 1.215 1.018 1.759 1.395.812.563.859.686.267.686-1.277 0-.449.987 1.174 1.4.863.22 1.822.562 2.131.761.38.245.72.143 1.055-.316.53-.724.523-.727 2.135 1.179.354.418.963.591 1.7.483.632-.093 1.149-.024 1.149.153 0 .322 3.065 1.94 3.675 1.94.179 0 .325-.276.325-.614 0-.503.154-.532.854-.157.687.367.746.529.3.823-.44.291-.307.576.646 1.383 2.128 1.803 4.2 2.303 4.2 1.014 0-.413.27-.975.6-1.249.502-.417.6-.355.6.38 0 .605.208.838.667.749.874-.169 1.185-1.129.366-1.129-2.162 0 1.67-2.903 3.917-2.968.633-.018 1.238.192 1.344.468.231.604 4.506.699 4.506.1 0-.652 3.162-.456 4.74.294 1.041.495 1.259.733.76.829-1.019.197-.857.837.326 1.287 1.416.538 1.774.491 1.774-.234 0-.343.172-.517.383-.387.21.13.29.478.177.772-.291.759 1.122 1.214 1.629.526.549-.744 1.373-.427 1.146.44-.139.532.575 1.047 3.142 2.264 1.828.867 3.863 1.968 4.523 2.447.66.479 2.858 1.683 4.884 2.675 7.835 3.837 11.693 7.226 12.752 11.204 1.159 4.352.507 7.056-2.074 8.608-3.654 2.199-3.376 5.368 1.061 12.098 1.853 2.81 3.131 5.287 3.819 7.4.569 1.748 2.267 5.337 3.774 7.977 6.013 10.533 6.21 14.478 1.074 21.44-5.236 7.097-6.438 8.064-21.49 17.283-3.738 2.29-3.899 2.842-2.2 7.552 1.583 4.39 1.127 7.325-1.281 8.235-2.136.808-5.064 1.69-5.61 1.69-.302 0-1.935.52-3.629 1.155-4.729 1.773-7.1 2.373-11.881 3.007-4.641.616-5.907.91-13.599 3.158-6.334 1.852-8.295 2.657-8.046 3.304.148.387-.15.461-1.178.295-1.088-.177-1.376-.09-1.376.416 0 .381-.224.554-.554.427-1.014-.389-5.617 2.069-8.048 4.298-1.319 1.209-3.208 2.751-4.198 3.427-.99.675-4.301 3.861-7.358 7.08-3.056 3.219-6.656 6.668-8 7.665-1.343.997-2.759 2.073-3.147 2.39-.387.318-.936.578-1.22.578-.283 0-.725.21-.982.467s-1.058.691-1.78.965c-4.728 1.793-8.558 3.525-8.824 3.991-.17.299-.564.446-.874.328-1.219-.468-8.441 1.56-8.014 2.251.135.219.056.398-.177.398-.233 0-.424-.199-.424-.442 0-.309-.989-.357-3.3-.159-3.334.284-4.558.747-3.578 1.353.421.26.42.393-.003.721-1.352 1.049-3.443 1.287-3.964.452-.134-.217-.359-.378-.5-.359-.813.109-1.055-.035-1.055-.627 0-.657-14.464-.55-16.208.119-.992.381-.227.94 1.332.974 1.666.035 1.576.079-1.624.787-1.265.28-2.3.66-2.3.845 0 .185-.939.336-2.086.336-1.955 0-2.043.042-1.412.674.828.828 21.387 1.564 23.631.846.697-.223 3.157-.447 5.467-.498 4.378-.097 12.098-1.34 11.756-1.894-.109-.175.037-.233.323-.128.621.229 5.233-1.155 4.914-1.473-.121-.122.214-.138.745-.037.907.174 6.473-1.944 6.1-2.321-.093-.093.32-.186.917-.208.597-.021 2.026-.685 3.176-1.476 1.15-.791 2.448-1.551 2.885-1.69.438-.139.694-.418.569-.619-.125-.202.082-.249.46-.103.502.192.599.121.359-.267-.211-.34-.172-.434.107-.261.587.363 3.318-.974 3.01-1.473-.14-.227-.04-.269.236-.098.969.598 10.796-7.279 10.228-8.199-.097-.156.137-.26.519-.23.385.03.647-.182.586-.475-.06-.291.076-.415.303-.274 1.04.642 6.001-4.796 5.371-5.888-.161-.28-.147-.377.029-.217.356.321 3.264-2.067 3.112-2.556-.053-.168.17-.204.495-.08.371.143 1.381-.584 2.721-1.957 2.747-2.813 3.588-3.325 6.384-3.891 1.268-.256 2.231-.588 2.14-.736-.092-.149.311-.305.894-.347 1.423-.101 9.724-2.326 9.509-2.549-.094-.096.747-.221 1.868-.277 1.122-.056 2.139-.236 2.262-.4.122-.164.942-.327 1.822-.362 5.78-.231 12.801-1.792 13.314-2.96.063-.143.568-.173 1.123-.067 2.895.554 13.947-4.602 15.937-7.434 1.348-1.918 1.822-5.63 1.113-8.719-.361-1.576-.321-1.689.977-2.724.744-.594 1.574-1.592 1.845-2.217.351-.814 2.601-2.536 7.891-6.041 8.112-5.375 9.298-6.292 8.926-6.894-.137-.222-.064-.289.164-.148.605.374 4.231-3.64 3.95-4.373-.131-.34-.059-.495.165-.356.355.22.568-.309.442-1.103-.026-.165.178-.255.453-.2 1.623.325 2.9-4.477 2.9-10.9v-6.2l-1.336-2.761c-1.799-3.716-4.074-7.08-4.577-6.769-.232.143-.29.058-.134-.194.456-.737-3.378-6.289-3.973-5.754-.169.153-.186.065-.038-.194.318-.555-1.638-3.579-2.211-3.418-.215.06-.269-.086-.122-.325.148-.24.013-.739-.301-1.11-1.02-1.206-1.508-4.81-1.518-11.206-.005-3.448-.177-6.899-.382-7.669-.205-.77-.626-2.398-.935-3.617-.978-3.858-2.061-5.673-5.322-8.924-3.102-3.092-8.061-6.209-8.977-5.643-.217.134-.344.005-.284-.286.061-.293-.201-.505-.586-.475-.382.03-.603-.095-.49-.278.23-.372-2.675-2.145-4.214-2.57-.55-.152-2.35-.882-4-1.621-5.155-2.31-8.108-3.45-10.8-4.169-1.43-.382-3.81-1.105-5.289-1.606-3.683-1.248-6.092-1.015-9.906.959-2.448 1.267-3.163 1.469-4.366 1.233-.792-.154-1.741-.302-2.11-.328-.368-.025-.592-.174-.495-.329.281-.455-7.044-3.843-9.234-4.27-4.167-.815-8.897-2.183-11.534-3.338-1.504-.658-2.999-1.096-3.321-.972-.329.126-.479.051-.342-.171.223-.36-.415-.549-1.699-.503-.272.01-.405-.128-.295-.307.268-.434-4.186-2.08-4.894-1.808-.347.133-.45.041-.273-.245.192-.311.007-.386-.58-.232-.553.144-.769.072-.6-.2.169-.273-.047-.345-.6-.2-.553.144-.769.072-.6-.2.17-.276-.055-.343-.639-.19-.496.13-.796.13-.666 0 .246-.246-2.935-1.634-6.357-2.773-1.1-.366-2.597-1-3.326-1.409-.729-.409-1.522-.622-1.762-.474-.241.149-.322.086-.182-.141.341-.551-4.394-2.651-5.242-2.325-.365.14-.531.122-.369-.04.392-.393-2.084-1.417-2.622-1.084-.231.143-.315.089-.186-.119.367-.594-6.424-3.449-7.743-3.255-.658.097-1.027.005-.887-.22.14-.228-.196-.303-.822-.183-.582.111-1.059.08-1.059-.068 0-.472-5.137-2.105-5.641-1.794-.275.17-.379.131-.242-.091.664-1.075-7.243-2.63-16.717-3.289-5.071-.352-5.961-.709-6.601-2.649-.828-2.508-4.766-3.467-7.469-1.819-1.064.649-1.513.708-2.763.363-.821-.227-2.004-.337-2.63-.245-.625.091-1.137.059-1.137-.073 0-.96-12.868-1.609-16.8-.848m37.2 9.583c0 .462 1.008.843 2.233.843.593 0 .967-.232.967-.6 0-.433-.444-.6-1.6-.6-.88 0-1.6.161-1.6.357m16 3.443c0 .373.378.6 1 .6s1-.227 1-.6-.378-.6-1-.6-1 .227-1 .6m3.398 1.003c-.302.488.796.972 1.383.609.23-.143.419-.429.419-.636 0-.504-1.487-.482-1.802.027M268.8 135.8c0 .333.356.6.8.6.444 0 .8-.267.8-.6 0-.333-.356-.6-.8-.6-.444 0-.8.267-.8.6m2.4 1c0 .22.27.4.6.4.33 0 .6-.18.6-.4 0-.22-.27-.4-.6-.4-.33 0-.6.18-.6.4m21.2 7.767c0 .348.285.633.633.633.707 0 .584-.861-.158-1.108-.261-.087-.475.126-.475.475m28.5 5.533c.252.757 1.5.864 1.5.129 0-.371-.342-.629-.833-.629-.489 0-.765.207-.667.5m7.355.1c.127.33.661.6 1.188.6.584 0 .957-.234.957-.6 0-.399-.399-.6-1.187-.6-.892 0-1.13.15-.958.6m-9.455 1.2c0 .33.18.6.4.6.22 0 .4-.27.4-.6 0-.33-.18-.6-.4-.6-.22 0-.4.27-.4.6m-58.828 5.234c-.712.857.005 1.966 1.272 1.966.778 0 .936-.182.846-.983-.172-1.539-1.244-2.037-2.118-.983m47.228 79.312c-4.991 1.637-8.496 4.257-9.764 7.301-2.134 5.123 5.542 3.162 12.07-3.085 4.479-4.285 3.479-6.114-2.306-4.216"/>
    <path fill="#d46d60" d="M199.316 115.6c-.188.72-.546.8-3.575.8-4.815 0-8.718 1.394-12.532 4.476-1.591 1.285-2.709 1.399-4.662.472-1.036-.492-2.115-.604-4.395-.458-2.311.149-3.07.067-3.23-.348-.222-.579-1.235-.704-2.323-.286-.484.185-.533.337-.181.555.629.389.13 1.189-.742 1.188-1.152-.002-6.519 1.624-9.876 2.993-4.287 1.749-5.336 1.895-8.637 1.2-1.548-.326-3.785-.592-4.969-.592-1.481 0-2.257-.184-2.484-.589-.181-.324-.725-.649-1.209-.723-.484-.074-.993-.246-1.13-.383-.137-.138-.493-.156-.792-.042-.298.115-2.035.442-3.861.727l-3.318.518 2.4.052c3.429.075 4.01.662.968.98-7.497.784-16.52.074-13.468-1.059.285-.106.043-.368-.561-.609-.584-.232-1.173-.603-1.309-.823-.365-.591-2.188.149-3.833 1.556-1.021.872-1.208 1.193-.697 1.194.873.001.917.632.067.958-.989.38-2.894.285-3.167-.157-.434-.702-1.063-.429-.815.354.33 1.039-1.731 1.608-2.418.668-.273-.373-.739-.531-1.126-.382-.519.199-.561.375-.194.816.564.68.466.8-.948 1.155-.704.176-1.099.116-1.099-.168 0-.243-.163-.443-.363-.443-.199 0-.269.355-.156.788.174.664-.054.83-1.437 1.051-.904.145-1.644.386-1.644.536 0 .643-4.796 1.726-5.405 1.221-.494-.41-.595-.354-.595.331 0 1.138-.607 1.409-1.393.622-.492-.491-.774-.542-1.113-.203-.339.339-.332.454.026.454.832 0 .52 1.133-.391 1.422-.479.152-1.332.705-1.896 1.227-.563.523-1.154.951-1.312.951-.158 0-2.74 2.655-5.737 5.9-7.224 7.82-7.252 7.832-7.526 3.143-.226-3.875-.418-3.945-7.218-2.632-6.621 1.277-9.834 3.126-9.846 5.663-.012 2.613-1.033 3.083-7.72 3.55-16.209 1.134-25.242 7.742-28.433 20.802-1.261 5.164-.571 6.881 2.79 6.94 2.73.047 2.681.528-.595 5.804-3.416 5.503-3.972 7.14-4.117 12.13-.063 2.145-.243 3.9-.4 3.9-.922 0-.034 5.742 1.028 6.656 2.214 1.904 3.006 1.001 2.115-2.41-1.406-5.387.565-4.699 3.754 1.311.964 1.817 2.055 3.119 3.77 4.498 1.328 1.067 3.025 2.512 3.772 3.212 1.596 1.494 3.913 6.275 4.254 8.777 1.165 8.549 2.681 12.937 6.009 17.395 3.31 4.435 4.255 6.075 5.395 9.361 1.698 4.892 2.641 5.494 5.969 3.808 3.909-1.981 4.527-1.155 3.397 4.538-.515 2.593-.618 4.352-.412 7.054.151 1.98.416 5.58.589 8 .568 7.953 1.674 9.149 14.543 15.735 19.119 9.784 21.413 10.777 27.898 12.072 5.225 1.044 6.564 1.543 5.4 2.014-.699.282-.661.326.3.351.605.015 1.1-.177 1.1-.428 0-.6 3.855-.163 4.692.533.335.277 1.104.452 1.71.388 1.625-.17 5.297.989 9.598 3.029 2.09.991 5.15 2.282 6.8 2.868 3.478 1.236 4.092 1.565 3.8 2.038-.34.551.624.936 1.115.445.755-.755 4.685-.418 4.685.402 0 .194-.765.378-1.7.407-1.108.036-1.354.12-.705.241.547.102 1.475.527 2.062.945.586.418 1.454.76 1.928.76s.757.171.627.38c-.39.631 2.215.897 7.403.755 3.48-.096 4.968-.281 5.086-.635.091-.275.466-.501.832-.502.367-.001 1.553-.451 2.635-1 1.919-.974 1.937-.998.7-.998-1.469 0-1.7-.676-.347-1.016 1.77-.444 5.279-.035 5.279.616 0 .33.415.836.922 1.124.507.289 1.097.919 1.311 1.4l.39.876-.166-.87c-.114-.596-.001-.807.357-.669 1.099.421 4.306-2.093 3.391-2.658-.905-.559.433-.948 3.88-1.129 2.655-.14 3.315-.063 3.315.385 0 1.582 2.541 2.07 5.408 1.038 2.626-.944 2.669-.982 1.424-1.231-2.358-.471-.899-.953 3.752-1.24 5.09-.313 6.317-.124 6.136.946-.146.859.76 2.028 1.572 2.028.372 0 .505.232.355.621-.14.364-.07.517.168.37.223-.138 4.226-.263 8.895-.278 4.67-.014 7.918-.101 7.22-.193-2.389-.313-2.525-1.32-.179-1.32 1.127 0 2.049-.151 2.049-.336 0-.185 1.035-.565 2.3-.845 3.2-.708 3.29-.752 1.624-.787-1.559-.034-2.324-.593-1.332-.974 1.744-.669 16.208-.776 16.208-.119 0 .592.242.736 1.055.627.141-.019.366.142.5.359.521.835 2.612.597 3.964-.452.423-.328.424-.461.003-.721-.98-.606.244-1.069 3.578-1.353 2.311-.198 3.3-.15 3.3.159 0 .243.191.442.424.442.233 0 .312-.179.177-.398-.427-.691 6.795-2.719 8.014-2.251.31.118.704-.029.874-.328.266-.466 4.096-2.198 8.824-3.991.722-.274 1.523-.708 1.78-.965.257-.257.699-.467.982-.467.284 0 .833-.26 1.22-.578.388-.317 1.804-1.393 3.147-2.39 1.344-.997 4.944-4.446 8-7.665 3.057-3.219 6.368-6.405 7.358-7.08.99-.676 2.879-2.218 4.198-3.427 2.431-2.229 7.034-4.687 8.048-4.298.33.127.554-.046.554-.427 0-.506.288-.593 1.376-.416 1.028.166 1.326.092 1.178-.295-.249-.647 1.712-1.452 8.046-3.304 7.692-2.248 8.958-2.542 13.599-3.158 4.781-.634 7.152-1.234 11.881-3.007 1.694-.635 3.327-1.155 3.629-1.155.546 0 3.474-.882 5.61-1.69 2.408-.91 2.864-3.845 1.281-8.235-1.699-4.71-1.538-5.262 2.2-7.552 15.052-9.219 16.254-10.186 21.49-17.283 5.136-6.962 4.939-10.907-1.074-21.44-1.507-2.64-3.205-6.229-3.774-7.977-.688-2.113-1.966-4.59-3.819-7.4-4.437-6.73-4.715-9.899-1.061-12.098 2.581-1.552 3.233-4.256 2.074-8.608-1.059-3.978-4.917-7.367-12.752-11.204-2.026-.992-4.224-2.196-4.884-2.675-.66-.479-2.695-1.58-4.523-2.447-2.567-1.217-3.281-1.732-3.142-2.264.227-.867-.597-1.184-1.146-.44-.507.688-1.92.233-1.629-.526.113-.294.033-.642-.177-.772-.211-.13-.383.044-.383.387 0 .725-.358.772-1.774.234-1.183-.45-1.345-1.09-.326-1.287.499-.096.281-.334-.76-.829-1.578-.75-4.74-.946-4.74-.294 0 .599-4.275.504-4.506-.1-.106-.276-.711-.486-1.344-.468-2.247.065-6.079 2.968-3.917 2.968.819 0 .508.96-.366 1.129-.459.089-.667-.144-.667-.749 0-.735-.098-.797-.6-.38-.33.274-.6.836-.6 1.249 0 1.289-2.072.789-4.2-1.014-.953-.807-1.086-1.092-.646-1.383.446-.294.387-.456-.3-.823-.7-.375-.854-.346-.854.157 0 .338-.146.614-.325.614-.61 0-3.675-1.618-3.675-1.94 0-.177-.517-.246-1.149-.153-.737.108-1.346-.065-1.7-.483-1.612-1.906-1.605-1.903-2.135-1.179-.335.459-.675.561-1.055.316-.309-.199-1.268-.541-2.131-.761-1.623-.413-2.451-1.4-1.174-1.4.592 0 .545-.123-.267-.686-.544-.377-1.336-1.005-1.759-1.395-1.395-1.284-5.83-1.772-5.83-.642 0 .763-.329.879-1.367.48-.897-.344-.784-.853.267-1.201l.9-.297-1-.29c-1.586-.459-2-.411-2 .231s-1.407.837-1.772.245c-.121-.195-.869-.476-1.664-.625-1.175-.221-1.406-.416-1.241-1.046.129-.494-.001-.774-.36-.774-.31 0-.563.2-.563.443 0 .284-.395.344-1.099.168-1.484-.373-1.625-.585-.791-1.195.664-.485.653-.532-.171-.748-.543-.142-1.047 0-1.319.373-.264.36-.719.496-1.131.338-.858-.329-.886-.818-.064-1.133.987-.379-1.246-2.16-3.125-2.493-.165-.029-.446-.075-.625-.103-.178-.028-.718-.417-1.2-.866-.481-.448-.875-.721-.875-.606 0 .115-.723-.168-1.607-.628-1.605-.837-4.834-1.415-4.745-.849.128.816-.104 1.299-.624 1.299-.798 0-1.234-.823-.633-1.195.388-.239.389-.37.007-.606-.268-.166-.623-.083-.788.185-.374.604-2.089.394-2.312-.284-.091-.276.164-.506.569-.513.692-.012.69-.045-.043-.6-.99-.748-1.424-.744-1.424.013 0 .373-.378.6-1 .6-1.146 0-1.393-1.06-.3-1.287.569-.118.532-.191-.2-.392-.623-.17-.9-.073-.9.316 0 .31-.255.563-.567.563-1.103 0-1.833-.495-1.833-1.243 0-.885-.148-.921-1.166-.285-.611.381-.973.327-1.895-.281-.626-.414-1.499-.761-1.939-.772-.555-.013-.8-.292-.8-.909 0-.967-1.406-2.164-2.755-2.346-.465-.062-1.804-.372-2.976-.688-1.979-.534-2.181-.522-2.816.159-.444.477-.994.653-1.568.503-1.001-.262-1.098-.565-.405-1.258.373-.373.284-.48-.4-.48-.484 0-.88.18-.88.4 0 .442-1.699.523-3.1.148-1.058-.284-1.206-.948-.211-.948.508 0 .331-.327-.672-1.243-1.296-1.184-1.474-1.231-3.706-.979-2.375.269-5.755-.659-5.269-1.447.113-.182-.165-.331-.618-.331-.453 0-.824-.191-.824-.424 0-.233-.188-.307-.418-.165-.229.142-.724.017-1.1-.277-.627-.491-.634-.472-.082.241.554.715.539.752-.188.479-.433-.163-.659-.168-.502-.011.157.157-.057.525-.476.818-.452.317-.683.832-.568 1.27.151.575-.204.89-1.611 1.427-2.071.791-4.147.141-4.557-1.426-.141-.54-.305-.645-.504-.323-.497.804-2.103.052-1.862-.872.265-1.012-.718-1.408-1.515-.611-.746.746-2.1.439-2.658-.602-.337-.629-.526-.684-1.004-.287-.463.385-.692.385-1.072.001-.378-.382-.318-.581.277-.917.726-.409.717-.453-.2-.96-1.449-.804-2.799-.698-3.044.239m6.055 3.727c3.126 1.285 4 1.884 7 4.799 1.886 1.832 5.252 4.704 7.481 6.381 2.228 1.677 5.738 4.873 7.8 7.102 5.603 6.059 7.397 6.905 10.177 4.802 3.34-2.527 9.213-.678 11.053 3.48 1.381 3.123-.06 4.829-5.835 6.909-2.781 1.001-4.645 2.632-4.072 3.56.174.282 2.099.444 5.349.45 6.503.012 7.604.284 13.876 3.425 2.86 1.432 5.886 2.71 6.725 2.841l1.526.237-.272-3.557c-.439-5.736-1.534-7.026-6.192-7.289-1.683-.095-2.806-.337-2.835-.612-.026-.25-.071-1.91-.1-3.688-.076-4.708-2.417-7.76-7.229-9.426-1.113-.385-2.743-.971-3.623-1.303-2.278-.858-4.748-.783-6.684.205-2.068 1.055-3.362.733-7.17-1.781-1.46-.964-4.168-2.667-6.018-3.785-5.782-3.492-9.878-8.287-8.37-9.795 1.424-1.424 17.276 2.115 29.242 6.529 2.31.852 6.99 2.558 10.4 3.79 3.41 1.233 7.333 2.772 8.718 3.42 1.385.649 2.614 1.179 2.731 1.179.118 0 1.865.744 3.882 1.653 5.963 2.688 6.1 2.741 12.412 4.829 3.331 1.103 7.174 2.525 8.54 3.161 1.366.636 2.646 1.157 2.845 1.157.71 0 9.094 2.897 10.584 3.657 2.572 1.312 2.806 3.265.712 5.943-1.926 2.464-2.227 3.262-1.447 3.833 1.476 1.079 4.556-.611 8.285-4.546 5.179-5.466 10.818-7.099 15.777-4.569.89.454 2.755 1.208 4.144 1.676 3.897 1.313 6.635 3.235 7.228 5.075.677 2.1 1.03 2.458 2.936 2.968 2.554.684 12.612 5.926 13.234 6.898.526.822.767 1.887.665 2.946-.025.264-.856 1.038-1.845 1.719-4.344 2.988-3.734 10.03 1.553 17.933 1.992 2.978 2.867 4.775 3.805 7.816.85 2.752 1.693 4.57 2.784 6 4.179 5.475 4.786 10.715 1.883 16.251-.866 1.65-2.216 4.26-3 5.8-1.672 3.282-4.477 6.183-9.267 9.585-1.848 1.312-4.067 2.977-4.933 3.702-1.95 1.631-3.628 2.118-5.884 1.71-8.938-1.619-9.838-.962-5.237 3.819 8.116 8.434 8.023 13.011-.305 14.984-1.21.287-4 1.248-6.2 2.136-3.736 1.508-4.356 1.633-9.41 1.907-4.638.252-5.838.463-8.4 1.479-9.72 3.851-14.36 5.083-18.79 4.988-5.417-.116-6.376.219-8.641 3.023-1.008 1.247-2.503 2.807-3.323 3.467-5.402 4.349-8.293 7.39-11.1 11.678-1.651 2.521-3.589 4.964-4.434 5.589-.826.611-2.596 2.116-3.933 3.344-2.179 2.001-9.18 5.589-10.905 5.589-.213 0-1.71.457-3.326 1.016-4.824 1.667-9.084 2.245-17.538 2.378-4.29.067-10.05.418-12.8.779-8.953 1.177-11.241 1.402-16.99 1.674-3.86.182-6.294.117-7.638-.206-1.515-.363-2.807-.364-5.572-.002-1.98.258-6.315.519-9.634.58-4.055.074-6.735.319-8.172.746-1.324.393-3.674.638-6.167.643-2.215.004-5.467.268-7.227.586-10.711 1.935-23.076-.823-31.419-7.008-3.097-2.296-3.706-2.455-12.981-3.38-6.559-.654-12.115-2.07-17.115-4.363-3.155-1.446-11.155-6.096-18.546-10.779-1.574-.997-3.554-1.999-4.4-2.228-4.547-1.229-7.268-8.401-5.368-14.15.6-1.815.275-4.81-.833-7.686-2.368-6.142-.937-10.592 4.511-14.031 1.712-1.081 2.872-2.155 5.257-4.87 4.144-4.718-.981-5.061-6.507-.436-2.824 2.363-10.96 5.521-12.757 4.95-2.566-.814-7.348-11.24-10.415-22.706-1.456-5.444-.425-9.28 3.398-12.646 2.675-2.354 1.703-3.817-2.066-3.11-6.768 1.269-6.26 1.254-8.306.233-4.391-2.193-6.598-5.594-7.441-11.465-.183-1.275-.711-3.789-1.173-5.586-1.545-6.014-.99-8.09 3.121-11.665 4.047-3.52 2.925-5.216-3.731-5.639-5.012-.318-5.345-1.147-2.99-7.442 1.686-4.506 5.952-8.376 12.012-10.899 3.85-1.603 6.757-2.056 17.349-2.702 5.685-.347 7.661-.984 9.906-3.198 2.033-2.004 3.148-2.021 3.641-.056.301 1.199 3.587 4.268 4.569 4.268.989 0 2.346-1.523 5.051-5.668 2.463-3.772 4.164-5.678 7.239-8.108 1.097-.866 2.984-2.524 4.194-3.682 2.412-2.31 3.788-3.007 7.388-3.746 1.573-.322 3.615-1.229 5.98-2.655 1.976-1.191 4.591-2.44 5.812-2.775 1.221-.335 2.67-.808 3.22-1.051 2.576-1.137 27.583-1.15 30.563-.015 3.925 1.495 6.712 1.15 12.745-1.577 9.835-4.445 16.692-4.529 16.692-.204 0 2.788 3.284 6.281 5.906 6.281 2.106 0 4.298-3.091 6.099-8.6 2.163-6.615 9.585-8.563 18.566-4.873M226.8 121.4c0 .62-1.381.812-2.567.357-1.165-.447-.649-.957.967-.957 1.156 0 1.6.167 1.6.6m14.8 3.2c0 .373-.378.6-1 .6s-1-.227-1-.6.378-.6 1-.6 1 .227 1 .6m3.2.976c0 .207-.189.493-.419.636-.587.363-1.685-.121-1.383-.609.315-.509 1.802-.531 1.802-.027m25.6 10.224c0 .333-.356.6-.8.6-.444 0-.8-.267-.8-.6 0-.333.356-.6.8-.6.444 0 .8.267.8.6m2 1c0 .22-.27.4-.6.4-.33 0-.6-.18-.6-.4 0-.22.27-.4.6-.4.33 0 .6.18.6.4m21.108 7.925c.087.261-.126.475-.475.475-.348 0-.633-.285-.633-.633 0-.707.861-.584 1.108.158m28.892 5.504c0 .373-.272.577-.667.5-1.003-.194-1.141-1.129-.166-1.129.491 0 .833.258.833.629m8-.029c0 .366-.373.6-.957.6-.527 0-1.061-.27-1.188-.6-.172-.45.066-.6.958-.6.788 0 1.187.201 1.187.6m-40.172.72c-.749.557-.728.636.663 2.532.79 1.076 2.263 3.689 3.273 5.808 1.01 2.119 2.543 5.061 3.407 6.54 1.808 3.093 1.77 3.422-.65 5.6-2.75 2.475-2.04 3.206 5.041 5.192 4.261 1.195 6.235 2.107 8.127 3.755 2.55 2.221 6.711 3.404 6.711 1.908 0-.526-2.496-2.978-5.145-5.055-1.039-.815-1.354-1.442-1.702-3.392-.74-4.141-2.529-6.823-5.77-8.653-2.525-1.425-3.472-2.799-4.379-6.355-1.519-5.956-6.575-10.117-9.576-7.88m29.372.48c0 .33-.18.6-.4.6-.22 0-.4-.27-.4-.6 0-.33.18-.6.4-.6.22 0 .4.27.4.6m-58.11 4.924c.982.624.803 2.276-.246 2.276-1.267 0-1.984-1.109-1.272-1.966.591-.712.814-.757 1.518-.31m-17.091 19.741c-1.483 2.046-1.144 2.61 2.328 3.876 2.962 1.08 4.837 3.023 7.656 7.933 2.098 3.652 2.373 3.955 4.635 5.104 1.323.672 2.9 1.561 3.506 1.976.606.415 1.191.664 1.302.553.472-.471-4.079-7.276-5.786-8.651-4.443-3.581-6.783-6.121-7.513-8.157-1.588-4.426-4.06-5.489-6.128-2.634M75.641 198.614c-2.09 2.381-1.05 6.497 2.569 10.165 1.208 1.224 1.307 1.115 1.536-1.676.102-1.249.471-2.678.82-3.176 2.636-3.763-1.945-8.706-4.925-5.313m-13.779.517c-1.086 1.2-.073 6.469 1.244 6.469.998 0 2.676-2.499 2.676-3.985 0-2.703-2.365-4.202-3.92-2.484m78.055-.336c-3.338 1.006-4.537 3.231-2.994 5.555.53.797 1.182 2.015 1.45 2.705.712 1.835 1.555 1.35 3.527-2.03 2.822-4.837 1.997-7.43-1.983-6.23m210.545 8.226c.076.392.38.793.676.892.344.115.489-.078.4-.534-.076-.392-.38-.793-.676-.892-.344-.115-.489.078-.4.534m-291.085 1.946c-.427.312-.642.702-.478.865.378.378 2.301-.478 2.301-1.023 0-.584-.916-.505-1.823.158m272.44 3.571c-1.34.98-.523 2.422 2.078 3.666 3.623 1.731 7.305 1.154 4.748-.745-.637-.472-1.869-1.444-2.738-2.159-1.696-1.394-2.913-1.621-4.088-.762M118 214.029c-.99.884-2.482 2.055-3.315 2.603-5.272 3.47-5.613 4.643-2.02 6.95l2.665 1.711 2.035-.815c3.224-1.29 3.817-1.387 5.577-.904 1.425.391 2.186.317 5.41-.531 4.991-1.313 5.063-1.449 1.778-3.367-1.512-.883-3.306-2.206-3.988-2.941-.682-.734-1.866-2.01-2.631-2.835-1.872-2.017-3.137-1.988-5.511.129m-12.723 10.252c-2.1 1.018-2.249 3.369-.261 4.125 2.961 1.126 4.917.095 3.528-1.859-.409-.576-1.022-1.462-1.361-1.968-.592-.884-.669-.896-1.906-.298M86 227.332c0 .509 1.203 4.804 1.401 5.002.773.774 1.062-.855.439-2.484-.579-1.518-1.84-3.243-1.84-2.518m223.8 4.081c-6.368 1.725-15.238 8.509-18.315 14.008-.177.316-1.364 1.282-2.638 2.147-1.976 1.342-3.161 1.849-7.177 3.069-.291.088-.469.476-.395.862.164.856 7.677 1.199 11.462.524 7.848-1.401 26.063-15.17 26.063-19.701 0-1.526-4.896-2.02-9-.909m2.536 4.949c.325 2.304-8.421 9.049-12.334 9.512-3.731.442-3.943-2.021-.482-5.609 3.651-3.785 12.454-6.465 12.816-3.903m-42.335 9.037c-.696.839-.287 5.286.564 6.138 1.449 1.449 3.223-2.741 2.455-5.8-.278-1.106-2.203-1.322-3.019-.338"/>
    <path fill="#bb1f18" d="M193.1 111.089c.715.089 1.885.089 2.6 0 .715-.088.13-.161-1.3-.161-1.43 0-2.015.073-1.3.161m28.4 5.6c.715.089 1.885.089 2.6 0 .715-.088.13-.161-1.3-.161-1.43 0-2.015.073-1.3.161m-24.827 3.3c-2.954.569-3.035 1.064-.868 5.281 1.055 2.052 2.333 4.23 2.84 4.842 1.674 2.016 1.775 6.046.192 7.629-1.055 1.055-4.159 1.266-8.229.561-4.941-.857-8.539.011-9.396 2.266-.775 2.038-2.905 3.031-8.212 3.828-5.256.789-11.458 2.29-12.095 2.927-1.273 1.274-.012 1.87 3.887 1.84 2.894-.023 3.833.134 5.404.905 1.892.927 2.334 1.475 3.657 4.532.381.88 1.223 2.285 1.871 3.123 2.52 3.254 1.682 6.306-2.063 7.511-.803.258-2.486.972-3.738 1.586-4.242 2.08-6.354-.78-4.003-5.42.779-1.537.941-2.979.345-3.074-.256-.04-2.295-.085-4.531-.1-4.931-.032-5.76-.485-7.534-4.121-.66-1.352-1.683-2.965-2.273-3.582-1.991-2.084-2.471-6.823-.929-9.176 1.849-2.823 5.416-3.412 16.643-2.751 6.703.395 7.687-.332 5.419-3.999-.408-.658-1.439-1.737-2.291-2.397-.885-.685-1.999-2.121-2.593-3.346l-1.043-2.145-2.299.166c-1.838.133-3.469.736-8.122 3.003-3.202 1.56-6.782 3.042-7.955 3.294-1.173.251-2.948.97-3.945 1.596-3.465 2.178-6.092 2.679-13.036 2.488-4.518-.125-4.247-2.068.646-4.64 3.925-2.063 3.286-2.364-5.419-2.553-8.504-.185-14.026.778-16.769 2.923-.76.594-.873 1.717-.484 4.814.258 2.053-.822 4.688-3.034 7.402-1.164 1.429-2.591 3.228-3.171 3.998-2.759 3.664-4.783 5.058-7.035 4.846-1.116-.105-1.712-2.301-1.454-5.354 1.015-12.009-9.767-4.253-15.719 11.308-.799 2.09-2.257 5.295-3.24 7.123-1.768 3.288-1.784 3.353-1.529 6.2.393 4.392-2.64 7.694-8.549 9.308-2.633.718-4.247 1.458-5.648 2.588-1.584 1.279-3.272 1.12-5.679-.537-4.965-3.418-9.543-4.202-13.677-2.344-5.134 2.307-5.445 3.848-2.158 10.66.849 1.759 1.543 3.547 1.543 3.973 0 10.814 10.518 12.295 16.768 2.36 4.615-7.334 7.919-9.405 11.951-7.488 1.987.944 2.724 1.075 5.712 1.014 5.546-.113 7.296 1.761 9.531 10.21.63 2.383 1.618 5.442 2.194 6.798.576 1.356 1.401 4.184 1.833 6.283 1.546 7.514 3.786 10.396 6.457 8.305.525-.41 2.124-1.334 3.554-2.051 7.849-3.94 13.322-8.525 15.017-12.58 1.801-4.313 8.76-6.306 12.02-3.443 1.765 1.55 2.331 1.533 3.984-.12l1.341-1.341-.238-4.204c-.337-5.952.233-7.514 2.743-7.514 1.219 0 3.533 1.104 3.533 1.686 0 .758 2.764.203 5.174-1.039 4.824-2.486 6.839-2.92 9.953-2.145 6.479 1.611 8.155 1.42 10.897-1.246 2.544-2.474 20.72-11.691 26.976-13.679 7.159-2.275 9.555-4.536 6.385-6.026-5.106-2.4-1.256-9.956 5.068-9.945 3.914.007 3.987.042 5.036 2.394.441.99 1.277 2.236 1.857 2.77 1.293 1.189 1.304 1.698.091 4.203-1.902 3.928 1.889 5.859 7.824 3.984 4.328-1.367 4.53-1.904 1.734-4.598-1.207-1.162-2.195-2.252-2.195-2.422 0-.87 1.6-1.093 3.774-.527 3.729.971 3.889.914 7.932-2.843 3.063-2.846 3.92-3.92 5.019-6.283.729-1.567 2.014-3.596 2.855-4.509 3.122-3.387 3.111-3.419-2.475-7.027-2.095-1.353-3.857-2.93-5.45-4.874-2.534-3.095-5.467-5.961-8.655-8.457-1.1-.862-3.35-2.86-5-4.441-7.114-6.816-11.937-9.149-16.927-8.187m-65.157 1.108c1.383.078 3.543.077 4.8-.002 1.256-.079.124-.143-2.516-.142-2.64 0-3.668.065-2.284.144m90.639 4.176c-1.136 1.838 6.552 5.733 12.454 6.311 2.415.237 4.841.513 5.391.614.55.102 1.874.281 2.942.4 6.582.729 17.189 9.057 18.001 14.134.234 1.466 1.815 3.268 2.865 3.268.157 0 1.119.607 2.138 1.349 2.979 2.169 3.154 2.163 7.957-.268 2.363-1.197 5.61-2.577 7.214-3.067 3.222-.984 3.349-1.55.551-2.44-.807-.257-3.898-1.591-6.868-2.964-2.97-1.374-6.84-3.148-8.6-3.943-4.009-1.81-13.189-5.177-17.598-6.455-1.839-.533-4.842-1.58-6.673-2.326-9.616-3.917-18.87-6.076-19.774-4.613M119.6 143.958c1.618.45 1.353 2.069-.484 2.967-2.855 1.395-6.716.741-6.716-1.138 0-1.538 4.309-2.633 7.2-1.829m159.228 11.061c-8.577 2.587-10.851 4.958-7.737 8.072 5.762 5.762 14.868 8.577 20.614 6.371 2.652-1.019 2.826-1.543 1.662-5.002-3.42-10.155-6.195-11.958-14.539-9.441m42.569-.273c-3.515 1.597-7.919 8.321-7.235 11.047.594 2.366 5.66 3.007 9.076 1.148 2.282-1.242 2.618-1.999 1.948-4.391-.438-1.565-.413-1.857.222-2.558 1.792-1.981 4.019.151 3.632 3.479-.164 1.413-.08 2.24.265 2.6 3.79 3.97.966 8.439-3.972 6.286-4.027-1.757-5.792-1.706-7.879.228-1.945 1.803-.454 5.182 3.699 8.38 2.17 1.67 5.308 6.252 5.941 8.673.347 1.328-1.634.8-4.48-1.194-1.771-1.241-2.778-1.648-4.545-1.836-6.035-.644-6.836-.905-11.62-3.785-6.299-3.793-9.491-4.966-12.546-4.612-2.38.276-6.48-1.382-18.303-7.4-1.21-.616-2.65-1.254-3.2-1.418-.55-.164-4.06-1.793-7.8-3.621-12.379-6.05-16.561-6.799-23.489-4.209-7.775 2.907-7.47 5.031 1.039 7.241 8.307 2.157 10.907 4.01 12.849 9.156.884 2.343 1.672 3.551 3.782 5.8 1.466 1.562 3.964 4.55 5.551 6.64 6.735 8.873 8.257 10.751 10.989 13.558 3.7 3.801 4.273 4.693 4.276 6.653.005 2.742.865 3.507 3.588 3.191 2.66-.309 4.673.137 8.509 1.884 2.694 1.227 2.695 1.227 4.8.587 2.205-.67 11.334-1.873 14.213-1.873 2.603 0 3.754 2.603 2.205 4.989-.812 1.252-.632 2.915.388 3.575 1.501.97 2.901 1.158 3.475.466.284-.342.675-.523.87-.402.195.121.355.03.355-.202 0-.743 3.281-2.826 4.452-2.826 1.524 0 4.321 1.117 5.548 2.215 2.006 1.796 3.968 1.604 3.237-.317-.434-1.142-2.772-4.564-4.517-6.612-3.29-3.861 5.044-9.273 11.069-7.189 2.759.955 3.701.667 5.168-1.581 1.09-1.67 2.416-7.34 2.014-8.608-.14-.442-.019-1.277.27-1.856 1.392-2.792 2.493-2.897 4.148-.397 1.938 2.928 5.303 4.053 7.011 2.345 1.417-1.417.706-3.615-2.202-6.8-2.23-2.442-2.598-3.241-2.598-5.639 0-1.243-.293-3.048-.652-4.011-.483-1.299-.634-2.96-.586-6.444.12-8.685-3.873-11.657-11.962-8.906-2.888.982-5.744 1.278-6.668.69-1.555-.989-.687-3.356 1.692-4.612 5.459-2.883 4.705-4.236-3.824-6.862-5.248-1.616-5.988-1.677-8.203-.67M59 157.224c-12.191.443-16.324 1.545-20.651 5.506-4.465 4.088-5.593 8.653-2.349 9.512 7.49 1.982 11.876 2.896 15.2 3.166 1.65.135 4.501.704 6.335 1.265 5.735 1.755 6.185 1.511 11.188-6.073 6.011-9.112 6.065-13.944.155-13.733-1.033.037-5.478.197-9.878.357m72.988.76c.487.308.365.632-.714 1.894-1.168 1.366-2.72 3.576-3.9 5.552-.746 1.25-1.774.419-1.774-1.433 0-4.03 3.827-7.633 6.388-6.013m7.197.208c2.411 1.247 3.654 4.148 2.115 4.94-.942.484-1.65.204-3.234-1.281-3.377-3.167-2.634-5.599 1.119-3.659M363.4 161.6c.859.88 1.652 1.6 1.762 1.6.11 0-.503-.72-1.362-1.6-.859-.88-1.652-1.6-1.762-1.6-.11 0 .503.72 1.362 1.6M15.342 176.2c-.001 1.98.066 2.84.15 1.912.084-.928.085-2.548.003-3.6-.083-1.052-.152-.292-.153 1.688m190.858 6.048c-9.42 6.229-13.645 7.59-36.676 11.812-3.395.622-3.815 1.045-3.122 3.145 1.445 4.378-.607 6.792-6.445 7.582-7.909 1.069-9.923 1.946-10.592 4.611-.65 2.589 4.913 4.202 14.493 4.202 3.249 0 5.798.167 5.935.388.313.507-6.969 4.155-10.023 5.022-1.303.37-5.07 1.975-8.37 3.566-3.3 1.592-7.028 3.301-8.284 3.799-3.913 1.55-4.045 2.379-.456 2.866 4.77.647 3.786 3.268-1.86 4.954-.995.297-7.456 2.939-9.86 4.032-.694.315-1.466.573-1.716.573s-2.653.825-5.34 1.833c-2.686 1.009-6.324 2.159-8.084 2.557-1.76.398-4.027.952-5.037 1.233-2.533.702-4.628-.358-8.836-4.47-3.238-3.165-3.927-3.622-3.927-2.603 0 1.584 1.44 4.267 3.355 6.25 1.168 1.21 2.539 2.92 3.047 3.8.507.88 1.541 2.254 2.296 3.054 1.622 1.715 1.376 2.006-1.276 1.511-3.048-.57-4.695-1.57-6.076-3.691-2.668-4.095-4.341-5.193-7.984-5.242-3.306-.043-3.762.395-3.762 3.617 0 2.883-.164 2.993-2.6 1.751-3.209-1.636-6.769-.317-11.117 4.12-3.017 3.078-2.895 3.772 1.57 8.88 6.945 7.945 8.317 8.791 14.068 8.675 12.695-.257 22.257 7.621 16.279 13.411-5.107 4.946-5.15 6.915-.2 9.287.99.475 2.369 1.222 3.065 1.661.695.439 1.685.891 2.2 1.004 1.521.335 3.112.424 3.228.18.059-.124 1.488-.912 3.175-1.751 2.531-1.257 3.182-1.782 3.719-2.996 1.049-2.372 1.242-2.644 2.252-3.191 5.485-2.968 15.868 5.415 13.195 10.653-1.616 3.169 1.697 8.137 6.134 9.196 2.495.596 26.373.156 31.232-.575 2.519-.38 8.071-.662 15-.764 11.241-.165 16.822-.542 24.6-1.66 3.318-.478 5.678-.561 9.6-.341 10.934.614 21.237.044 22.673-1.255.406-.368 1.226-1.439 1.822-2.381.727-1.15 1.612-1.929 2.694-2.373.886-.363 2.151-.89 2.811-1.171 1.741-.739 13.654-10.084 14.707-11.536.491-.678 1.343-2.051 1.893-3.052.809-1.473 1.472-2.05 3.473-3.021 2.899-1.407 4.32-2.645 5.356-4.665.414-.806 1.611-2.149 2.661-2.985 1.051-.835 2.45-2.086 3.11-2.78 2.844-2.99 4.115-3.554 9-3.996 2.731-.247 10.248-2.595 10.8-3.372.11-.156 1.91-.85 4-1.544 3.973-1.318 4.91-1.829 8.2-4.469 2.583-2.073 3.633-2.005 4.796.312 1.476 2.94 3.071 3.622 4.385 1.873.894-1.191 2.481-1.927 5.019-2.33 4.113-.652 7.087-3.698 5.702-5.838-.812-1.254-2.905-3.62-5.52-6.241l-2.031-2.036-4.472-.271c-5.456-.332-6.33-.038-9.944 3.344-1.412 1.32-3.505 2.87-4.651 3.444-1.146.574-3.524 1.908-5.284 2.965-6.393 3.839-16.827 5.638-25.2 4.346-2.301-.356-3.238-.319-5.258.205-6.628 1.72-8.986.596-9.357-4.464-.203-2.756-.407-3.422-1.51-4.922-2.308-3.138-1.007-4.557 5.074-5.537 2.425-.39 4.647-1.429 5.655-2.644 1.77-2.132 3.385-.18 3.266 3.945-.115 3.998.301 5.695 1.366 5.572 7.609-.88 12.461-3.671 16.008-9.209.854-1.335 2.319-2.79 4.024-4 4.791-3.399 4.972-3.851 2.719-6.802-.777-1.017-1.61-2.632-1.851-3.589-.639-2.539-1.457-2.79-3.648-1.117-.99.756-2.741 1.732-3.889 2.169-4.003 1.521-4.386 2.493-1.999 5.082 1.942 2.107 2.048 3.306.412 4.683-2.614 2.199-7.219 2.187-7.205-.019.019-3.047.87-8.676 1.586-10.493 1.72-4.363-1.486-9.216-6.088-9.218-3.185-.001-4.851-.991-5.125-3.047-.534-3.999-10.417-13.301-14.891-14.016-2.046-.327-3.89-2.132-6.254-6.119-5.19-8.751-10.448-10.206-18.944-5.242-2.766 1.617-3.891 1.559-3.891-.202 0-2.265-4.212-4.69-9.311-5.359-1.711-.225-3.819-.77-4.684-1.212-2.581-1.316-3.357-1.088-9.005 2.646m23.015 7.052c.008.275.092 2.256.186 4.402.169 3.843.154 3.922-.989 5.223-2.109 2.403-9.284 5.331-11.744 4.794-1.952-.427-1.951-.421-.702-2.814.663-1.268 1.591-3.168 2.064-4.224 1.038-2.317 2.442-3.499 7.056-5.941 3.934-2.082 4.108-2.142 4.129-1.44m106.004 2.746c6.51 2.801 8.717 9.152 4.008 11.534-2.006 1.016-2.963.528-4.234-2.159-.578-1.221-1.904-3.255-2.948-4.521-2.478-3.005-3.77-5.174-3.419-5.741.4-.649 4.216-.135 6.593.887m24.064 15.392c-.852 1.522.361 3.524 1.995 3.293 1.41-.2 1.463-2.005.09-3.085-1.289-1.014-1.616-1.046-2.085-.208m-290.687 2.239c-2.755 3.274-2.649 5.52.581 12.323 5.299 11.161 6.712 12.598 10.784 10.969 2.517-1.007 2.424-2.599-.833-14.192-2.331-8.296-7.471-12.737-10.532-9.1m63.104 2.567c-.956.426-.53 2.206.86 3.596 2.387 2.387 6.43 1.73 5.553-.902-.666-1.997-4.43-3.578-6.413-2.694m225.076 2.51c-3.133 1.894-3.866 2.83-4.754 6.076-.778 2.843-.805 2.859-6.74 4.139-2.028.437-3.615 1.101-5.2 2.177-1.255.851-3.338 2.156-4.63 2.901-6.007 3.463-6.628 5.089-2.441 6.396 3.101.967 3.752.947 6.28-.198 1.16-.525 3.164-1.281 4.454-1.68 2.015-.623 2.833-1.214 5.8-4.189 3.268-3.275 5.67-5.028 6.185-4.513.674.674 6.67-6.642 6.67-8.139 0-1.779-1.796-4.524-2.96-4.524-.052 0-1.251.699-2.664 1.554m-298.87 1.244c-5.395 1.625-6.232 5.316-2.493 11.002 1.433 2.18 1.985 3.917 2.412 7.6.35 3.018 1.438 5.207 3.091 6.214 3.295 2.009 5.705.034 5.016-4.111-.453-2.726-2.199-14.677-2.548-17.447-.422-3.339-2.031-4.296-5.478-3.258m212.757 7.015c1.625 1.846 4.137 6.622 4.137 7.865 0 1.44-.743 1.921-2.98 1.931-2.808.012-4.794 1.067-7.808 4.146-2.841 2.903-2.878 2.922-3.783 2.016-2.129-2.128.153-7.549 3.536-8.398 1.997-.501 2.635-1.895 2.635-5.76 0-1.914.104-3.583.23-3.71.528-.528 2.859.576 4.033 1.91m-176.452 8.169c-.393.636.813 3.011 1.887 3.714l1.007.66-.376-1.672c-.515-2.293-1.871-3.748-2.518-2.702m58.535 19.416c2.501 1.649 5.262 3.212 6.138 3.474 4.084 1.224 4.752 3.776 1.426 5.452-5.543 2.793-12.979 3.029-22.204.704-4.806-1.211-6.659-1.89-9.007-3.296-1.296-.777 1.917-3.002 8.892-6.158 8.841-4 8.952-4.001 14.755-.176m-56.261 3.818c5.863 1.25 9.937 3.037 12.549 5.504.458.433 2.249 1.592 3.98 2.575 7.133 4.052 2.777 6.888-6.614 4.305-1.65-.454-4.89-1.2-7.2-1.659-7.759-1.541-10.791-4.45-10.798-10.361-.003-2.526.476-2.878 2.623-1.928.96.425 3.417 1.129 5.46 1.564m108.1-.063c.508 1.6-1.078 6.516-2.515 7.796-2.089 1.86-2.73-1.614-1.047-5.679.993-2.4 3.079-3.639 3.562-2.117m34.52 60.33c.497.096 1.217.092 1.6-.008.382-.1-.025-.179-.905-.174-.88.004-1.193.086-.695.182m-39.905.92c-.41.267.035.311 1.4.138 1.1-.14 2.075-.318 2.167-.397.397-.343-3.026-.094-3.567.259m-53.3 3.496c2.475.07 6.525.07 9 0 2.475-.071.45-.128-4.5-.128s-6.975.057-4.5.128"/>
    <path fill="#ca4941" d="M195.543 118.053c-5.68.582-7.208 2.522-5.594 7.103.558 1.586.662 2.497.409 3.585-1.013 4.36.27 7.205 3.018 6.69.986-.185 1.391-.093 1.563.356.325.845-1.067 1.1-3.669.673-4.002-.657-10.412 1.23-11.835 3.485-1.355 2.145-1.886 2.46-4.904 2.899-9.797 1.426-16.381 3.012-17.348 4.177-2.114 2.547-5.583 1.143-5.583-2.26 0-4.992 3.569-6.195 14.771-4.977 10.104 1.098 11.033.39 7.994-6.09-1.92-4.094-2.001-4.403-1.745-6.643.317-2.755.073-3.036-2.645-3.045-2.743-.009-7.439 1.364-12.308 3.599-6.768 3.106-8.06 3.249-12.135 1.345l-3.318-1.55-8.207.102c-13.89.173-18.167.354-19.207.813-.55.243-1.999.716-3.22 1.051-1.221.335-3.836 1.584-5.812 2.775-2.365 1.426-4.407 2.333-5.98 2.655-3.718.763-5 1.457-7.621 4.125-1.339 1.363-3.77 3.761-5.401 5.328-2.199 2.112-3.483 3.796-4.966 6.512-5.286 9.684-5.01 9.477-8.185 6.152-2.665-2.791-3.686-3.213-6.125-2.535-.93.258-5.47.626-10.09.816-19.316.798-27.52 5.478-30.154 17.202-.658 2.926-.081 3.367 4.764 3.642 7.84.444 9.327 1.859 4.99 4.746-5.873 3.91-6.665 5.915-4.961 12.549.462 1.797.99 4.311 1.173 5.586.84 5.851 2.95 9.134 7.285 11.33 2.243 1.137 2.164 1.141 7.503-.425 1.21-.355 3.517-.802 5.127-.994 4.967-.59 8.068-3.003 6.773-5.27-1.606-2.81-.061-6.677 3.376-8.452 1.972-1.017 2.769-.545 3.85 2.279 1.065 2.783.008 7.617-1.926 8.813-.228.141-.842 1.099-1.364 2.128-1.47 2.899-2.111 3.292-5.923 3.64-4.786.436-8.437 2.755-10.401 6.604-2.377 4.659 6.975 30.228 11.056 30.228.767 0 4.664-1.396 6.472-2.319 3.189-1.626 5.76-5.15 5.76-7.894 0-.794.27-1.714.6-2.044.33-.33.6-.437.6-.238s.225.392.5.429c.275.037 1.13.17 1.9.296.974.16 2.435-.121 4.8-.924 5.989-2.03 6.112-2.223 4.874-7.597-.444-1.93-1.007-4.679-1.251-6.109-1.078-6.331-1.586-7.547-5.347-12.8-6.06-8.465-6.416-11.052-1.848-13.414 4.137-2.14 8.078 3.258 6.598 9.037-1.022 3.987-.492 6.391 1.582 7.18 1.154.439 1.755 1.785 2.945 6.597.49 1.98 1.518 4.819 2.284 6.309.766 1.489 1.574 3.739 1.795 5 .496 2.823.995 4.148 2.486 6.599 2.006 3.297.013 4.17-4.318 1.892-3.963-2.085-6.432-1.179-8.161 2.991-.921 2.221-3.445 4.432-10.357 9.069-3.976 2.667-4.785 5.532-3.146 11.14 1.392 4.764 1.642 6.848 1.04 8.67-1.905 5.765.809 12.935 5.363 14.166.846.229 2.826 1.231 4.4 2.228 7.391 4.683 15.391 9.333 18.546 10.779 5 2.293 10.556 3.709 17.115 4.363 9.275.925 9.884 1.084 12.981 3.38 8.343 6.185 20.708 8.943 31.419 7.008 1.76-.318 5.012-.582 7.227-.586 2.493-.005 4.843-.25 6.167-.643 1.437-.427 4.117-.672 8.172-.746 3.319-.061 7.654-.322 9.634-.58 2.765-.362 4.057-.361 5.572.002 1.344.323 3.778.388 7.638.206 5.749-.272 8.037-.497 16.99-1.674 2.75-.361 8.51-.712 12.8-.779 8.454-.133 12.714-.711 17.538-2.378 1.616-.559 3.113-1.016 3.326-1.016 1.725 0 8.726-3.588 10.905-5.589 1.337-1.228 3.107-2.733 3.933-3.344.845-.625 2.783-3.068 4.434-5.589 2.807-4.288 5.698-7.329 11.1-11.678.82-.66 2.315-2.22 3.323-3.467 2.265-2.804 3.224-3.139 8.641-3.023 4.43.095 9.07-1.137 18.79-4.988 2.562-1.016 3.762-1.227 8.4-1.479 5.054-.274 5.674-.399 9.41-1.907 2.2-.888 4.99-1.849 6.2-2.136 8.328-1.973 8.421-6.55.305-14.984-4.601-4.781-3.701-5.438 5.237-3.819 2.256.408 3.934-.079 5.884-1.71.866-.725 3.085-2.39 4.933-3.702 4.79-3.402 7.595-6.303 9.267-9.585.784-1.54 2.134-4.15 3-5.8 2.903-5.536 2.296-10.776-1.883-16.251-1.091-1.43-1.934-3.248-2.784-6-.938-3.041-1.813-4.838-3.805-7.816-5.287-7.903-5.897-14.945-1.553-17.933.989-.681 1.82-1.455 1.845-1.719.102-1.059-.139-2.124-.665-2.946-.622-.972-10.68-6.214-13.234-6.898-1.906-.51-2.259-.868-2.936-2.968-.593-1.84-3.331-3.762-7.228-5.075-1.389-.468-3.254-1.222-4.144-1.676-2.935-1.498-8.279-1.271-11.039.468-2.503 1.576-2.174 1.273-5.559 5.135-5.273 6.015-10.742 5.724-6.017-.321 2.094-2.678 1.86-4.631-.712-5.943-1.49-.76-9.874-3.657-10.584-3.657-.199 0-1.479-.521-2.845-1.157s-5.209-2.058-8.54-3.161c-6.312-2.088-6.449-2.141-12.412-4.829-2.017-.909-3.764-1.653-3.882-1.653-.117 0-1.346-.53-2.731-1.179-1.385-.648-5.308-2.187-8.718-3.42-3.41-1.232-8.09-2.938-10.4-3.79-11.969-4.415-27.818-7.953-29.242-6.529-.67.67.929 3.362 3.218 5.42 4.187 3.765 9.365 5.837 18.793 7.521 11.218 2.003 18.031 6.959 18.031 13.115 0 2.314.374 2.716 3.22 3.467 4.236 1.118 8.279 4.678 7.61 6.703-.85 2.577 3.684 8.28 8.217 10.336 1.65.748 3.447 2.338 2.153 1.905-.33-.111-1.95-.618-3.6-1.128-3.958-1.224-6.075-2.114-14.278-5.999-10.552-4.998-14.044-5.372-22.292-2.387-8.198 2.966-6.822 7.062 2.822 8.395 1.731.239 4.136.767 5.344 1.173 1.208.406 2.263.672 2.343.591.297-.296-3.043-1.462-7.519-2.624-8.37-2.173-8.641-4.316-.909-7.207 6.928-2.59 11.11-1.841 23.489 4.209 3.74 1.828 7.25 3.457 7.8 3.621.55.164 1.99.802 3.2 1.418 11.823 6.018 15.923 7.676 18.303 7.4 3.055-.354 6.247.819 12.546 4.612 4.784 2.88 5.585 3.141 11.62 3.785 1.767.188 2.774.595 4.545 1.836 2.846 1.994 4.827 2.522 4.48 1.194-.633-2.421-3.771-7.003-5.941-8.673-4.153-3.198-5.644-6.577-3.699-8.38 2.087-1.934 3.852-1.985 7.879-.228 4.938 2.153 7.762-2.316 3.972-6.286-.345-.36-.429-1.187-.265-2.6.387-3.328-1.84-5.46-3.632-3.479-.635.701-.66.993-.222 2.558.906 3.236-1.597 5.45-6.16 5.45-5.502 0-6.407-2.614-2.788-8.058 3.19-4.798 6.075-6.514 9.47-5.635 12.078 3.128 13.705 4.809 7.716 7.971-2.379 1.256-3.247 3.623-1.692 4.612.924.588 3.78.292 6.668-.69 8.089-2.751 12.082.221 11.962 8.906-.048 3.484.103 5.145.586 6.444.359.963.652 2.768.652 4.011 0 2.398.368 3.197 2.598 5.639 2.908 3.185 3.619 5.383 2.202 6.8-1.708 1.708-5.073.583-7.011-2.345-1.655-2.5-2.756-2.395-4.148.397-.289.579-.41 1.414-.27 1.856.402 1.268-.924 6.938-2.014 8.608-1.467 2.248-2.409 2.536-5.168 1.581-6.025-2.084-14.359 3.328-11.069 7.189 1.745 2.048 4.083 5.47 4.517 6.612.731 1.921-1.231 2.113-3.237.317-1.227-1.098-4.024-2.215-5.548-2.215-1.171 0-4.452 2.083-4.452 2.826 0 .232-.16.323-.355.202-.195-.121-.586.06-.87.402-.574.692-1.974.504-3.475-.466-1.02-.66-1.2-2.323-.388-3.575 1.549-2.386.398-4.989-2.205-4.989-2.879 0-12.008 1.203-14.213 1.873-2.105.64-2.106.64-4.8-.587-3.836-1.747-5.849-2.193-8.509-1.884-2.723.316-3.583-.449-3.588-3.191-.003-1.962-.579-2.858-4.284-6.653-1.588-1.627-3.448-3.723-4.134-4.658-.687-.935-1.332-1.7-1.436-1.7-.335 0 1.985 3.023 5.357 6.981 3.581 4.204 4.062 5.589 2.575 7.425-1.054 1.303-2.278.754-3.257-1.459-1.432-3.236-10.773-11.222-15.875-13.572-3.175-1.462-3.96-2.318-6.385-6.956-4.294-8.215-8.881-9.483-18.558-5.126-2.57 1.157-2.766 1.117-5.4-1.1-2.165-1.823-3.447-2.598-4.274-2.584-.289.005.196.336 1.077.737 1.694.769 4.197 3.298 4.197 4.239 0 1.749 1.131 1.804 3.891.19 8.496-4.964 13.754-3.509 18.944 5.242 2.364 3.987 4.208 5.792 6.254 6.119 4.474.715 14.357 10.017 14.891 14.016.274 2.056 1.94 3.046 5.125 3.047 4.602.002 7.808 4.855 6.088 9.218-.716 1.817-1.567 7.446-1.586 10.493-.014 2.206 4.591 2.218 7.205.019 1.636-1.377 1.53-2.576-.412-4.683-2.387-2.589-2.004-3.561 1.999-5.082 1.148-.437 2.899-1.413 3.889-2.169 2.191-1.673 3.009-1.422 3.648 1.117.241.957 1.074 2.572 1.851 3.589 2.253 2.951 2.072 3.403-2.719 6.802-1.705 1.21-3.17 2.665-4.024 4-3.547 5.538-8.399 8.329-16.008 9.209-1.065.123-1.481-1.574-1.366-5.572.119-4.125-1.496-6.077-3.266-3.945-1.008 1.215-3.23 2.254-5.655 2.644-6.081.98-7.382 2.399-5.074 5.537 1.103 1.5 1.307 2.166 1.51 4.922.371 5.06 2.729 6.184 9.357 4.464 2.02-.524 2.957-.561 5.258-.205 8.373 1.292 18.807-.507 25.2-4.346 1.76-1.057 4.138-2.391 5.284-2.965 1.146-.574 3.239-2.124 4.651-3.444 3.614-3.382 4.488-3.676 9.944-3.344l4.472.271 2.031 2.036c2.615 2.621 4.708 4.987 5.52 6.241 1.385 2.14-1.589 5.186-5.702 5.838-2.538.403-4.125 1.139-5.019 2.33-1.314 1.749-2.909 1.067-4.385-1.873-1.163-2.317-2.213-2.385-4.796-.312-3.29 2.64-4.227 3.151-8.2 4.469-2.09.694-3.89 1.388-4 1.544-.552.777-8.069 3.125-10.8 3.372-4.885.442-6.156 1.006-9 3.996-.66.694-2.059 1.945-3.11 2.78-1.05.836-2.247 2.179-2.661 2.985-1.036 2.02-2.457 3.258-5.356 4.665-2.001.971-2.664 1.548-3.473 3.021-.55 1.001-1.402 2.374-1.893 3.052-1.053 1.452-12.966 10.797-14.707 11.536-.66.281-1.925.808-2.811 1.171-1.082.444-1.967 1.223-2.694 2.373-.596.942-1.416 2.013-1.822 2.381-1.436 1.299-11.739 1.869-22.673 1.255-3.922-.22-6.282-.137-9.6.341-7.778 1.118-13.359 1.495-24.6 1.66-6.929.102-12.481.384-15 .764-4.859.731-28.737 1.171-31.232.575-4.437-1.059-7.75-6.027-6.134-9.196 2.673-5.238-7.71-13.621-13.195-10.653-1.01.547-1.203.819-2.252 3.191-.537 1.214-1.188 1.739-3.719 2.996-1.687.839-3.116 1.627-3.175 1.751-.116.244-1.707.155-3.228-.18-.515-.113-1.505-.565-2.2-1.004-.696-.439-2.075-1.186-3.065-1.661-4.95-2.372-4.907-4.341.2-9.287 5.978-5.79-3.584-13.668-16.279-13.411-5.751.116-7.123-.73-14.068-8.675-4.465-5.108-4.587-5.802-1.57-8.88 4.348-4.437 7.908-5.756 11.117-4.12 2.436 1.242 2.6 1.132 2.6-1.751 0-3.222.456-3.66 3.762-3.617 3.643.049 5.316 1.147 7.984 5.242 1.381 2.121 3.028 3.121 6.076 3.691 2.652.495 2.898.204 1.276-1.511-.755-.8-1.789-2.174-2.296-3.054-.508-.88-1.879-2.59-3.047-3.8-1.915-1.983-3.355-4.666-3.355-6.25 0-1.019.689-.562 3.927 2.603 4.208 4.112 6.303 5.172 8.836 4.47 1.01-.281 3.277-.835 5.037-1.233 1.76-.398 5.398-1.548 8.084-2.557 2.687-1.008 5.09-1.833 5.34-1.833s1.022-.258 1.716-.573c2.404-1.093 8.865-3.735 9.86-4.032 5.646-1.686 6.63-4.307 1.86-4.954-3.589-.487-3.457-1.316.456-2.866 1.256-.498 4.984-2.207 8.284-3.799 3.3-1.591 7.067-3.196 8.37-3.566 3.054-.867 10.336-4.515 10.023-5.022-.137-.221-2.686-.388-5.935-.388-9.58 0-15.143-1.613-14.493-4.202.669-2.665 2.683-3.542 10.592-4.611 5.838-.79 7.89-3.204 6.445-7.582-.693-2.1-.273-2.523 3.122-3.145 22.994-4.216 27.052-5.517 36.504-11.706 5.889-3.856 6.6-4.066 9.215-2.732.887.452 2.544.906 3.684 1.007l2.073.186-1.986-.568c-5.126-1.464-4.946-4.004.457-6.467 2.876-1.31 3.749-2.426 2.501-3.197-1.355-.838-1.06-1.958.677-2.571 3.181-1.123 9.112-7.089 10.15-10.21 1.173-3.523 5.589-7.757 9.127-8.749 2.889-.811 4.074-1.641 4.074-2.853 0-2.269-3.143-2.865-5.246-.996-3.603 3.204-6.867 1.832-13.354-5.613-2.008-2.305-5.08-5.356-6.826-6.78-1.746-1.424-5.154-4.605-7.574-7.069-4.888-4.978-5.418-5.372-8.821-6.563-3.29-1.152-5.53-1.444-8.636-1.126m7.998 2.826c2.779.89 5.219 2.66 10.059 7.297 1.65 1.581 3.9 3.579 5 4.441 3.188 2.496 6.121 5.362 8.655 8.457 1.593 1.944 3.355 3.521 5.45 4.874 5.586 3.608 5.597 3.64 2.475 7.027-.841.913-2.126 2.942-2.855 4.509-1.099 2.363-1.956 3.437-5.019 6.283-4.043 3.757-4.203 3.814-7.932 2.843-2.174-.566-3.774-.343-3.774.527 0 .17.988 1.26 2.195 2.422 2.796 2.694 2.594 3.231-1.734 4.598-5.935 1.875-9.726-.056-7.824-3.984 1.213-2.505 1.202-3.014-.091-4.203-.58-.534-1.416-1.78-1.857-2.77-1.047-2.347-1.128-2.387-4.958-2.394-3.691-.007-5.3.866-6.385 3.462-.817 1.955-.641 2.578.206.732 1.194-2.6 2.115-3.169 5.383-3.324 3.492-.166 3.853.077 5.212 3.503l1.024 2.579-1.161 1.752c-.692 1.044-1.062 2.023-.915 2.421.497 1.354 1.381 2.413 2.884 3.455 2.57 1.781 2.426 2.242-1.753 5.603-4.204 3.381-9.467 6.224-12.066 6.517-2.729.307-2.349-.584 1.331-3.129 2.375-1.642 2.817-4.302.782-4.703-2.242-.442-8.916 5.508-8.468 7.548.326 1.485-1.497 2.421-6.205 3.184-1.65.267-4.706.915-6.791 1.44-7.333 1.846-11.472.781-8.309-2.137 1.221-1.127 21.154-10.863 25.963-12.682 7.797-2.948 10.43-6.218 5.619-6.978-2.44-.386-3.266-.981-3.328-2.398-.033-.733-.104-.83-.236-.319-.389 1.505.252 2.566 2.067 3.419 3.17 1.49.774 3.751-6.385 6.026-6.256 1.988-24.432 11.205-26.976 13.679-2.742 2.666-4.418 2.857-10.897 1.246-3.114-.775-5.129-.341-9.953 2.145-2.41 1.242-5.174 1.797-5.174 1.039 0-.582-2.314-1.686-3.533-1.686-2.51 0-3.08 1.562-2.743 7.514l.238 4.204-1.341 1.341c-1.653 1.653-2.219 1.67-3.984.12-3.26-2.863-10.219-.87-12.02 3.443-1.695 4.055-7.168 8.64-15.017 12.58-1.43.717-3.029 1.641-3.554 2.051-2.671 2.091-4.911-.791-6.457-8.305-.432-2.099-1.257-4.927-1.833-6.283-.576-1.356-1.564-4.415-2.194-6.798-2.235-8.449-3.985-10.323-9.531-10.21-2.988.061-3.725-.07-5.712-1.014-4.032-1.917-7.336.154-11.951 7.488-3.133 4.98-5.511 6.423-10.636 6.454-3.561.022-6.132-3.673-6.132-8.814 0-.426-.694-2.214-1.543-3.973-3.287-6.812-2.976-8.353 2.158-10.66 4.134-1.858 8.712-1.074 13.677 2.344 2.407 1.657 4.095 1.816 5.679.537 1.401-1.13 3.015-1.87 5.648-2.588 5.909-1.614 8.942-4.916 8.549-9.308-.255-2.847-.239-2.912 1.529-6.2.983-1.828 2.441-5.033 3.24-7.123 2.953-7.72 7.117-13.866 10.863-16.035 4.024-2.329 5.344-1.044 4.856 4.727-.258 3.053.338 5.249 1.454 5.354 2.252.212 4.276-1.182 7.035-4.846.58-.77 2.007-2.569 3.171-3.998 2.212-2.714 3.292-5.349 3.034-7.402-.389-3.097-.276-4.22.484-4.814 2.743-2.145 8.265-3.108 16.769-2.923 8.705.189 9.344.49 5.419 2.553-4.893 2.572-5.164 4.515-.646 4.64 6.944.191 9.571-.31 13.036-2.488.997-.626 2.772-1.345 3.945-1.596 1.173-.252 4.753-1.734 7.955-3.294 4.653-2.267 6.284-2.87 8.122-3.003l2.299-.166 1.043 2.145c.594 1.225 1.708 2.661 2.593 3.346 5.612 4.344 4.392 6.839-3.128 6.396-11.227-.661-14.794-.072-16.643 2.751-1.542 2.353-1.062 7.092.929 9.176.59.617 1.613 2.23 2.273 3.582 1.774 3.636 2.603 4.089 7.534 4.121 2.236.015 4.275.06 4.531.1.596.095.434 1.537-.345 3.074-2.351 4.64-.239 7.5 4.003 5.42 1.252-.614 2.935-1.328 3.738-1.586 3.745-1.205 4.583-4.257 2.063-7.511-.648-.838-1.49-2.243-1.871-3.123-1.323-3.057-1.765-3.605-3.657-4.532-1.571-.771-2.51-.928-5.404-.905-3.899.03-5.16-.566-3.887-1.84.637-.637 6.839-2.138 12.095-2.927 5.307-.797 7.437-1.79 8.212-3.828.857-2.255 4.455-3.123 9.396-2.266 4.07.705 7.174.494 8.229-.561 1.583-1.583 1.482-5.613-.192-7.629-2.136-2.574-4.806-8.523-4.128-9.2 1.415-1.416 4.666-1.427 9.024-.033m26.185 4.942c4.498 1.128 7.214 2.033 12.203 4.065 1.831.746 4.834 1.793 6.673 2.326 4.409 1.278 13.589 4.645 17.598 6.455 1.76.795 5.63 2.569 8.6 3.943 2.97 1.373 6.061 2.707 6.868 2.964 2.798.89 2.671 1.456-.551 2.44-1.604.49-4.851 1.87-7.214 3.067-4.803 2.431-4.978 2.437-7.957.268-1.019-.742-1.981-1.349-2.138-1.349-1.05 0-2.631-1.802-2.865-3.268-.812-5.077-11.419-13.405-18.001-14.134-1.068-.119-2.392-.298-2.942-.4-.55-.101-2.976-.377-5.391-.614-5.01-.49-8.067-1.684-11.016-4.302-3.053-2.709-.895-3.223 6.133-1.461M103.783 143.3c-.764 3.538-3.343 6.391-4.431 4.901-1.226-1.675-.377-3.988 1.995-5.434 1.987-1.212 2.775-1.039 2.436.533m11.119.69c-2.483.589-3.115 1.731-1.678 3.032 1.77 1.602 7.376.231 7.376-1.804 0-1.429-2.542-1.977-5.698-1.228m180.776 7.819c1.699 1.119 3.258 3.591 3.904 6.191.976 3.921 2.234 5.6 4.199 5.6 1.596 0 8.939 7.298 9.243 9.187.357 2.225.694 2.801 3.724 6.385 3.825 4.521 3.752 5.628-.368 5.628-2.87 0-4.324-.502-7.68-2.653-5.508-3.531-11.742-5.747-16.166-5.747-2.725 0-4.929-.914-9.327-3.865l-1.393-.935h4.46c6.005 0 9.726-1.498 9.726-3.916 0-1.93-3.067-9.755-5.646-14.403-1.657-2.987 1.641-3.899 5.324-1.472m-7.057 3.403c2.173 2.026 6.101 11.439 5.355 12.833-.651 1.217-3.89 2.15-7.376 2.125-6.711-.048-17.279-6.226-16.924-9.894.373-3.848 15.819-7.978 18.945-5.064M71.735 157.7c2.714 2.492 2.089 5.168-3.012 12.9-5.003 7.584-5.453 7.828-11.188 6.073-1.834-.561-4.685-1.13-6.335-1.265-3.324-.27-7.71-1.184-15.2-3.166-6.46-1.71 2.356-12.186 11.862-14.097 2.682-.539 6.116-.748 21.016-1.278 1.451-.052 2.1.138 2.857.833m56.508.738c-2.277 1.791-3.606 6.818-1.969 7.446.427.164.832-.004 1.1-.454 1.18-1.976 2.732-4.186 3.9-5.552 1.883-2.202-.577-3.371-3.031-1.44m7.564-.45c-.535.867 2.551 4.775 4.193 5.309 1.86.604 2.609-1.615 1.165-3.451-1.44-1.83-4.68-2.954-5.358-1.858M252.338 173.8c.667.88 1.613 2.68 2.1 4 1.259 3.405 2.319 4.928 5.006 7.191l2.356 1.983-2.842-3.027c-2.269-2.417-3.069-3.62-3.964-5.963-.654-1.71-1.695-3.53-2.496-4.36l-1.374-1.424 1.214 1.6m-180.883.961c.634 1.27.002 2.635-1.507 3.261-2.3.952-3.11-1.055-1.296-3.211 1.195-1.42 2.112-1.437 2.803-.05M57.833 180.8c.593 0 .967.232.967.6 0 .911-1.76.732-2.638-.268-.72-.82-.721-.853-.029-.6.403.147 1.168.268 1.7.268m169.18 9c-1.571.965-1.575.974-.41.887 2.259-.167 3.086 5.395 1.145 7.702-3.219 3.825-10.538 5.156-10.555 1.92l-.007-1.309-1.166 1.982c-1.556 2.643-.65 3.331 3.391 2.576 6.828-1.275 10.22-4.622 9.99-9.856-.094-2.146-.178-4.127-.186-4.402-.021-.699-.385-.617-2.202.5m101.613 1.359c-.351.567.941 2.736 3.419 5.741 1.044 1.266 2.37 3.3 2.948 4.521 1.271 2.687 2.228 3.175 4.234 2.159 6.066-3.069.575-11.597-8.127-12.62-1.466-.172-2.286-.106-2.474.199m-60.871 4.16c.848 1.034 1.625 1.881 1.727 1.881.273 0-2.261-3.14-2.805-3.476-.255-.158.23.56 1.078 1.595m-110.285-.386c1.809.935 3.591 4.809 2.78 6.046-.709 1.083-4.284 2.429-8.02 3.02-7.632 1.208-8.806 7.594-1.715 9.328 4.616 1.129 8.479 1.883 9.614 1.878 2.209-.01 1.081 1.289-2.132 2.457-1.648.6-4.257 1.726-5.797 2.503-4.165 2.101-9.735 4.494-12 5.155-1.1.321-3.62 1.211-5.6 1.977-2.086.807-5.114 1.603-7.2 1.893-1.98.275-4.47.717-5.533.983-1.233.309-2.743.374-4.168.181-1.643-.223-2.666-.141-3.867.309-2.942 1.103-10.725 1.21-12.188.168-3.614-2.573-1.975-6.481 3.956-9.438 2.221-1.108 5.422-3.807 11.276-9.508 3.954-3.851 4.861-3.59 11.29 3.254 2.182 2.322 3.768 3.069 8.099 3.816 2.002.346 4.123.812 4.713 1.037 1.539.585 3.94.503 4.846-.165.914-.675.623-1.092-1.672-2.387-.819-.463-1.883-1.559-2.368-2.44-.485-.88-1.67-2.183-2.633-2.896-3.569-2.642-4.403-3.558-4.151-4.564.13-.517-.042-1.728-.382-2.69-1.345-3.809-.857-4.541 4.982-7.475 6.242-3.135 14.379-4.248 17.87-2.442m194.068 12.446c.089.456-.056.649-.4.534-.296-.099-.6-.5-.676-.892-.089-.456.056-.649.4-.534.296.099.6.5.676.892m9.83.267c1.373 1.08 1.32 2.885-.09 3.085-1.634.231-2.847-1.771-1.995-3.293.469-.838.796-.806 2.085.208m-288.157 1.432c3.766 2.58 6.469 9.003 8.351 19.836.566 3.26-.742 4.686-4.3 4.686-3.813 0-11.83-17.149-10.12-21.647 1.194-3.142 3.846-4.398 6.069-2.875m63.509 4.002c2.506 1.871 1.955 4.12-1.009 4.12-2.838 0-6.097-4.026-4.011-4.956.965-.43 4.002.076 5.02.836m199.185.22c.869.715 2.101 1.687 2.738 2.159 2.557 1.899-1.125 2.476-4.748.745-2.601-1.244-3.418-2.686-2.078-3.666 1.175-.859 2.392-.632 4.088.762m24.279.149c.819.315 2.216 3.009 2.216 4.275 0 1.497-5.996 8.813-6.67 8.139-.515-.515-2.917 1.238-6.185 4.513-2.967 2.975-3.785 3.566-5.8 4.189-1.29.399-3.294 1.155-4.454 1.68-2.528 1.145-3.179 1.165-6.28.198-4.187-1.307-3.566-2.933 2.441-6.396 1.292-.745 3.375-2.05 4.63-2.901 1.585-1.076 3.172-1.74 5.2-2.177 5.935-1.28 5.962-1.296 6.74-4.139.879-3.212 5.175-7.63 7.418-7.63.052 0 .387.112.744.249m-297.828 2.907c.45.45.867 1.627 1.028 2.9.349 2.77 2.095 14.721 2.548 17.447.689 4.145-1.721 6.12-5.016 4.111-1.653-1.007-2.741-3.196-3.091-6.214-.427-3.683-.979-5.42-2.412-7.6-2.265-3.444-2.88-5.716-2.032-7.503 1.449-3.055 7.088-5.028 8.975-3.141m228.144.821c2.653 1.683 3.392 3.238 2.199 4.626-.964 1.12-3.161 1.495-3.979.677-.607-.607-2.674-5.992-2.404-6.262.555-.556 2.497-.111 4.184.959m-23.87 3.926c-.126.127-.23 1.796-.23 3.71 0 3.865-.638 5.259-2.635 5.76-3.383.849-5.665 6.27-3.536 8.398.905.906.942.887 3.783-2.016 3.014-3.079 5-4.134 7.808-4.146 3.441-.015 3.801-1.33 1.543-5.627-2.243-4.268-5.554-7.258-6.733-6.079m3.681 3.402c1.949 2.075 2.608 5.189 1.252 5.915-2.143 1.147-3.163-.273-3.163-4.403 0-2.653.482-3.033 1.911-1.512m-174.596 7.001c.351.388.808 1.458 1.014 2.378l.376 1.672-1.007-.66c-1.586-1.039-2.583-4.096-1.336-4.096.173 0 .601.318.953.706m222.059-.316c5.207 1.98-15.379 19.109-25.037 20.833-3.785.675-11.298.332-11.462-.524-.074-.386.104-.774.395-.862 4.016-1.22 5.201-1.727 7.177-3.069 1.274-.865 2.461-1.831 2.638-2.147 4.941-8.831 19.609-16.771 26.289-14.231M264 234.162c0 .735-1.469 1.966-1.975 1.654-.632-.391-.52-.921.39-1.831.831-.831 1.585-.747 1.585.177m-147.709 4.481c-.141.141-.574.134-.963-.015-.598-.23-.617-.326-.12-.633.613-.379 1.549.181 1.083.648m159.148 1.972c.305 1.213.027 4.681-.641 7.985-.266 1.32-.558 2.803-.648 3.295-.722 3.963-6.922 2.66-8.142-1.711-.366-1.311-1.057-3.014-1.535-3.784-1.493-2.404-.234-4.479 3.039-5.009.818-.133 2.478-.564 3.688-.96 3.221-1.051 3.937-1.02 4.239.184m-136.965 9.951c-7.355 3.292-10.707 5.568-9.375 6.366 8.441 5.056 23.79 6.331 31.211 2.592 3.338-1.682 2.657-4.228-1.459-5.462-.894-.267-2.845-1.306-4.338-2.309-3.643-2.448-3.811-2.503-1.713-.562 2.059 1.906 1.862 1.754 4.9 3.765 7.927 5.246-9.414 7.836-20.7 3.091-4.582-1.926-4.997-2.439-3.167-3.919 1.602-1.297 8.412-4.956 10.367-5.571.88-.277 1.24-.515.8-.529-.44-.014-3.377 1.128-6.526 2.538M88.84 252.52c-1.289 1.289-.185 6.475 1.859 8.737 1.961 2.17 3.566 2.904 8.501 3.884 2.31.459 5.55 1.205 7.2 1.659 9.391 2.583 13.747-.253 6.614-4.305-1.731-.983-3.522-2.142-3.98-2.575-2.612-2.467-6.686-4.254-12.549-5.504-2.043-.435-4.5-1.139-5.46-1.564-1.269-.561-1.865-.652-2.185-.332m113.676 1.789c-1.844 1.441-3.336 7.801-1.955 8.331 1.386.532 2.982-1.815 3.841-5.65.691-3.084-.04-4.124-1.886-2.681"/>
    <path fill="#c65255" d="M192.028 118.329c-2.722 1.031-4.174 2.663-5.223 5.871-1.801 5.509-3.993 8.6-6.099 8.6-2.622 0-5.906-3.493-5.906-6.281 0-4.325-6.857-4.241-16.692.204-5.668 2.563-8.796 3.046-12.12 1.873-2.586-.913-2.323-.456.454.791 3.117 1.399 4.917 1.113 11.225-1.782 4.869-2.235 9.565-3.608 12.308-3.599 2.718.009 2.962.29 2.645 3.045-.256 2.24-.175 2.549 1.745 6.643 3.039 6.48 2.11 7.188-7.994 6.09-11.202-1.218-14.771-.015-14.771 4.977 0 3.403 3.469 4.807 5.583 2.26.967-1.165 7.551-2.751 17.348-4.177 3.018-.439 3.549-.754 4.904-2.899 1.423-2.255 7.833-4.142 11.835-3.485 2.602.427 3.994.172 3.669-.673-.172-.449-.577-.541-1.563-.356-2.748.515-4.031-2.33-3.018-6.69.253-1.088.149-1.999-.409-3.585-1.61-4.571-.119-6.474 5.594-7.141l2.657-.31-2.2-.023c-1.21-.013-2.997.279-3.972.647m6.872-.453c.385.1 1.015.1 1.4 0 .385-.101.07-.183-.7-.183s-1.085.082-.7.183m3.5.724c1.826.703 2.545.693 1-.014-.66-.303-1.47-.544-1.8-.538-.33.007.03.255.8.552m5.4 2.186c.66.43 3.09 2.729 5.4 5.11 2.31 2.381 5.628 5.494 7.374 6.917 1.746 1.423 4.818 4.473 6.826 6.778 6.487 7.445 9.751 8.817 13.354 5.613 2.103-1.869 5.246-1.273 5.246.996 0 1.212-1.185 2.042-4.074 2.853-3.538.992-7.954 5.226-9.127 8.749-1.038 3.121-6.969 9.087-10.15 10.21-1.737.613-2.032 1.733-.677 2.571 1.277.789.359 1.857-2.947 3.428-5.882 2.794-4.791 5.48 2.746 6.765 3.276.558 3.802.805 6.429 3.017 2.634 2.217 2.83 2.257 5.4 1.1 9.677-4.357 14.264-3.089 18.558 5.126 2.425 4.638 3.21 5.494 6.385 6.956 5.102 2.35 14.443 10.336 15.875 13.572.979 2.213 2.203 2.762 3.257 1.459 1.487-1.836 1.006-3.221-2.575-7.423-1.815-2.13-3.93-4.732-4.7-5.782-5.457-7.444-9.859-12.917-11.42-14.196-2.204-1.806-3.353-3.551-4.612-7.006-1.773-4.864-5.114-6.966-12.725-8.008-9.437-1.291-10.728-5.42-2.613-8.356 8.248-2.985 11.74-2.611 22.292 2.387 8.203 3.885 10.32 4.775 14.278 5.999 1.65.51 3.27 1.017 3.6 1.128 1.294.433-.503-1.157-2.153-1.905-4.533-2.056-9.067-7.759-8.217-10.336.669-2.025-3.374-5.585-7.61-6.703-2.846-.751-3.22-1.153-3.22-3.467 0-6.156-6.813-11.112-18.031-13.115-9.612-1.717-14.701-3.793-19.064-7.778-1.231-1.125-2.031-1.656-1.777-1.18.702 1.312 3.5 3.568 7.218 5.819 1.84 1.114 4.54 2.814 6 3.778 3.808 2.514 5.102 2.836 7.17 1.781 1.936-.988 4.406-1.063 6.684-.205.88.332 2.51.918 3.623 1.303 4.812 1.666 7.153 4.718 7.229 9.426.029 1.778.074 3.438.1 3.688.029.275 1.152.517 2.835.612 4.658.263 5.753 1.553 6.192 7.289l.272 3.557-1.526-.237c-.839-.131-3.865-1.409-6.725-2.841-6.272-3.141-7.373-3.413-13.876-3.425-3.25-.006-5.175-.168-5.349-.45-.573-.928 1.291-2.559 4.072-3.56 5.775-2.08 7.216-3.786 5.835-6.909-1.84-4.158-7.713-6.007-11.053-3.48-2.78 2.103-4.574 1.257-10.177-4.802-2.062-2.229-5.572-5.425-7.8-7.102-2.229-1.677-5.582-4.525-7.452-6.327-3.147-3.034-4.654-4.184-5.474-4.177-.179.001.214.354.874.783M92.198 138.804c-.137.221-1.532 1.426-3.099 2.677-3.975 3.171-5.526 4.86-8.132 8.851-2.705 4.145-4.062 5.668-5.051 5.668-.982 0-4.268-3.069-4.569-4.268-.482-1.919-1.622-1.952-3.468-.099-2.116 2.123-3.707 2.795-7.479 3.163l-3 .292 2.917.056c1.604.031 4.286-.227 5.959-.572 3.935-.813 4.498-.634 7.339 2.341 3.173 3.323 2.845 3.568 8.177-6.1 2.062-3.737 4.146-6.181 8.608-10.092 1.43-1.254 2.476-2.289 2.324-2.3-.152-.012-.389.161-.526.383m9.149 3.963c-2.372 1.446-3.221 3.759-1.995 5.434 1.088 1.49 3.667-1.363 4.431-4.901.339-1.572-.449-1.745-2.436-.533M290.414 153.4c2.358 4.113 5.586 12.367 5.586 14.284 0 2.418-3.721 3.916-9.726 3.916h-4.46l1.393.935c4.398 2.951 6.602 3.865 9.327 3.865 4.424 0 10.658 2.216 16.166 5.747 3.356 2.151 4.81 2.653 7.68 2.653 4.12 0 4.193-1.107.368-5.628-3.021-3.573-3.36-4.151-3.732-6.372-.379-2.267-6.649-8.264-9.759-9.336-1.942-.669-2.206-.128-.417.855 4.268 2.345 6.379 5.146 7.113 9.439.345 2.021.638 2.615 1.697 3.442 2.63 2.054 5.15 4.527 5.15 5.055 0 1.496-4.161.313-6.711-1.908-1.892-1.648-3.866-2.56-8.127-3.755-7.081-1.986-7.791-2.717-5.041-5.192 2.404-2.164 2.452-2.516.736-5.456-.816-1.399-2.511-4.614-3.767-7.144-1.256-2.53-2.758-5.14-3.338-5.8l-1.055-1.2.917 1.6m22.771 5.219c-.83.999-2.784 2.273-4.339 2.829-1.111.397-1.233.521-.526.534 1.284.025 2.841-.865 4.458-2.548.759-.789 1.276-1.434 1.149-1.434-.126 0-.46.278-.742.619M197.8 161.978c-2.435.997-4.339 5.945-2.784 7.235.339.281 1.539.657 2.666.836 4.811.76 2.178 4.03-5.619 6.978-4.809 1.819-24.742 11.555-25.963 12.682-3.163 2.918.976 3.983 8.309 2.137 2.085-.525 5.141-1.173 6.791-1.44 4.708-.763 6.531-1.699 6.205-3.184-.448-2.04 6.226-7.99 8.468-7.548 2.035.401 1.593 3.061-.782 4.703-3.68 2.545-4.06 3.436-1.331 3.129 2.599-.293 7.862-3.136 12.066-6.517 4.179-3.361 4.323-3.822 1.753-5.603-1.503-1.042-2.387-2.101-2.884-3.455-.147-.398.223-1.377.915-2.421l1.161-1.752-1.024-2.579c-.562-1.418-1.31-2.804-1.661-3.079-.71-.556-5.022-.639-6.286-.122M68.652 174.811c-1.814 2.156-1.004 4.163 1.296 3.211 1.509-.626 2.141-1.991 1.507-3.261-.691-1.387-1.608-1.37-2.803.05m180.088.726c.583.625 1.387 2.048 1.787 3.162.73 2.036 3.07 4.576 7.513 8.157 1.707 1.375 6.258 8.18 5.786 8.651-.111.111-.696-.138-1.302-.553-.606-.415-2.183-1.304-3.506-1.976-2.262-1.149-2.537-1.452-4.635-5.104-2.819-4.91-4.694-6.853-7.656-7.933-3.472-1.266-3.811-1.83-2.328-3.876 1.479-2.042 2.78-2.2 4.341-.528M36.5 177.103c1.447.897 1.389 1.952-.2 3.639l-1.3 1.379 2-1.334c3.176-2.119 3.356-2.798.992-3.744-2.094-.837-2.888-.805-1.492.06m19.662 4.029c.878 1 2.638 1.179 2.638.268 0-.368-.374-.6-.967-.6-.532 0-1.297-.121-1.7-.268-.692-.253-.691-.22.029.6M33.375 183.3l-1.175 1.3 1.3-1.175c.715-.646 1.3-1.231 1.3-1.3 0-.309-.33-.037-1.425 1.175m190.862 8.085c-7.509 3.104-10.325 12.442-3.212 10.65 6.482-1.632 8.956-5.053 7.252-10.03-.599-1.753-1.109-1.831-4.04-.62m-77.637 3.363c-3.27.734-10.039 3.837-11.7 5.364-1.059.974-1.139 2.311-.282 4.738.34.962.512 2.173.382 2.69-.252 1.006.582 1.922 4.151 4.564.963.713 2.148 2.016 2.633 2.896.485.881 1.549 1.977 2.368 2.44 2.295 1.295 2.586 1.712 1.672 2.387-.906.668-3.307.75-4.846.165-.59-.225-2.711-.691-4.713-1.037-4.331-.747-5.917-1.494-8.099-3.816-6.429-6.844-7.336-7.105-11.29-3.254-5.854 5.701-9.055 8.4-11.276 9.508-5.931 2.957-7.57 6.865-3.956 9.438 1.463 1.042 9.246.935 12.188-.168 1.201-.45 2.224-.532 3.867-.309 1.425.193 2.935.128 4.168-.181 1.063-.266 3.553-.708 5.533-.983 2.086-.29 5.114-1.086 7.2-1.893 1.98-.766 4.5-1.656 5.6-1.977 2.265-.661 7.835-3.054 12-5.155 1.54-.777 4.149-1.903 5.797-2.503 3.213-1.168 4.341-2.467 2.132-2.457-.621.003-2.479-.282-4.129-.633-9.115-1.938-10.27-2.593-9.859-5.591.444-3.241 1.727-4.291 6.089-4.982 7.297-1.155 9.177-2.695 7.531-6.172-1.738-3.671-6.038-4.677-13.161-3.079m-83.406.393c-3.377 1.795-4.882 5.641-3.294 8.419 1.295 2.267-1.806 4.68-6.773 5.27-3.064.364-7.026 1.32-7.468 1.801-.143.155.281.147.941-.017 5.676-1.41 7.7-.244 4.5 2.591-.935.829-2.043 2.111-2.462 2.851l-.762 1.344 1.531-1.503c2.675-2.625 4.76-3.588 8.506-3.929 3.812-.348 4.453-.741 5.923-3.64.522-1.029 1.136-1.987 1.364-2.128 1.896-1.171 3-6.055 1.97-8.707-1.21-3.114-1.841-3.487-3.976-2.352m12.171 1.215c-4.284 2.612-3.935 4.798 2.111 13.244 3.761 5.253 4.269 6.469 5.347 12.8.244 1.43.807 4.179 1.251 6.109 1.238 5.374 1.115 5.567-4.874 7.597-2.365.803-3.826 1.084-4.8.924-.77-.126-1.625-.259-1.9-.296-.275-.037-.5-.23-.5-.429 0-.199-.27-.092-.6.238-.33.33-.6 1.25-.6 2.044 0 2.665-2.53 6.214-5.576 7.825-1.78.941-1.513.974.986.123 1.088-.371 3.133-1.654 4.622-2.9 5.493-4.597 10.622-4.235 6.468.457-2.697 3.045-3.083 3.42-4.5 4.374-2.796 1.881-4.025 2.914-4.66 3.914-.578.912-.503.887.707-.233.744-.689 2.163-1.751 3.153-2.36 4.801-2.955 7.924-5.787 8.853-8.03 1.714-4.134 4.196-5.035 8.147-2.957 4.331 2.278 6.324 1.405 4.318-1.892-1.491-2.451-1.99-3.776-2.486-6.599-.221-1.261-1.029-3.511-1.795-5-.766-1.49-1.794-4.329-2.284-6.309-1.19-4.812-1.791-6.158-2.945-6.597-2.074-.789-2.604-3.193-1.582-7.18 1.527-5.963-2.689-11.411-6.861-8.867m4.821 2.337c1.17 1.722 1.327 3.882.38 5.234-.349.498-.718 1.927-.82 3.176-.278 3.39-1.101 3.038-3.924-1.679-3.11-5.198 1.047-11.611 4.364-6.731m-15.157.539c1.189 1.314 1 3.676-.413 5.151-1.512 1.579-1.707 1.543-2.627-.483-1.767-3.893.538-7.433 3.04-4.668m78.014-.132c.937 1.234.612 2.917-1.143 5.925-1.972 3.38-2.815 3.865-3.527 2.03-.268-.69-.92-1.908-1.45-2.705-1.183-1.782-.946-3.194.738-4.393 2.193-1.562 4.561-1.939 5.382-.857M61.2 208.809c0 .545-1.923 1.401-2.301 1.023-.345-.345 1.004-1.432 1.777-1.432.288 0 .524.184.524.409m62.311 5.091c.765.825 1.949 2.101 2.631 2.835.682.735 2.476 2.058 3.988 2.941 3.285 1.918 3.213 2.054-1.778 3.367-3.224.848-3.985.922-5.41.531-1.76-.483-2.353-.386-5.577.904l-2.035.815-2.665-1.711c-3.593-2.307-3.252-3.48 2.02-6.95.833-.548 2.325-1.719 3.315-2.603 2.374-2.117 3.639-2.146 5.511-.129m162.805 2.318c-.27.27 1.797 5.655 2.404 6.262 1.722 1.722 5.366-.781 4.257-2.924-1.081-2.09-5.63-4.37-6.661-3.338m-177.772 10.329c.409.576.64 1.318.513 1.65-.451 1.174-4.805.525-5.31-.792-.799-2.081 2.253-4.592 3.436-2.826.339.506.952 1.392 1.361 1.968m160.123-2.68c-.337.337-.347 3.632-.016 5.288.412 2.06 3.749 2.076 3.749.018 0-2.351-2.762-6.277-3.733-5.306M87.84 229.85c.623 1.629.334 3.258-.439 2.484-.198-.198-1.401-4.493-1.401-5.002 0-.725 1.261 1 1.84 2.518m174.575 4.135c-.91.91-1.022 1.44-.39 1.831.506.312 1.975-.919 1.975-1.654 0-.924-.754-1.008-1.585-.177m-147.207 4.01c-.497.307-.478.403.12.633.835.32 1.38-.08.842-.618-.227-.227-.609-.233-.962-.015m155.992 2.436c-1.21.396-2.87.827-3.688.96-3.273.53-4.532 2.605-3.039 5.009.478.77 1.169 2.473 1.535 3.784 1.22 4.371 7.42 5.674 8.142 1.711.09-.492.382-1.975.648-3.295 1.713-8.477 1.164-9.723-3.598-8.169m1.82 5.306c.768 3.059-1.006 7.249-2.455 5.8-.851-.852-1.26-5.299-.564-6.138.816-.984 2.741-.768 3.019.338m-127.56 2.529c-2.374.541-9.492 4.129-11.627 5.86-1.829 1.482-1.416 1.995 3.167 3.921 6.067 2.551 12.868 3.293 17.757 1.938 5.996-1.661 6.564-2.633 2.943-5.029-2.922-1.934-2.631-1.709-5.784-4.488-3.185-2.808-3.432-2.892-6.456-2.202m64.24 67.233c3.905.066 10.295.066 14.2 0 3.905-.065.71-.119-7.1-.119s-11.005.054-7.1.119"/>
  </g>
</svg>